SplineFontDB: 3.0
FontName: Untitled5
FullName: Untitled5
FamilyName: Untitled5
Weight: Regular
Copyright: Copyright (c) 2020, Craig Cornelius
UComments: "2020-1-30: Created with FontForge (http://fontforge.org)"
Version: 001.000
ItalicAngle: 0
UnderlinePosition: -100
UnderlineWidth: 50
Ascent: 800
Descent: 200
InvalidEm: 0
LayerCount: 2
Layer: 0 0 "Back" 1
Layer: 1 0 "Fore" 0
XUID: [1021 442 -1316551718 12203625]
StyleMap: 0x0000
FSType: 0
OS2Version: 0
OS2_WeightWidthSlopeOnly: 0
OS2_UseTypoMetrics: 1
CreationTime: 1580430030
ModificationTime: 1580430041
OS2TypoAscent: 0
OS2TypoAOffset: 1
OS2TypoDescent: 0
OS2TypoDOffset: 1
OS2TypoLinegap: 90
OS2WinAscent: 0
OS2WinAOffset: 1
OS2WinDescent: 0
OS2WinDOffset: 1
HheadAscent: 0
HheadAOffset: 1
HheadDescent: 0
HheadDOffset: 1
DEI: 91125
Encoding: ISO8859-1
UnicodeInterp: none
NameList: AGL For New Fonts
DisplaySize: -96
AntiAlias: 1
FitToEm: 1
WinInfo: 112 8 10
BeginChars: 256 190

StartChar: exclam
Encoding: 33 33 0
Width: 624
VWidth: 2048
Flags: W
HStem: 0 200<248.35 375.65>
VStem: 150 324<741.361 1411.51> 212 200<36.3496 163.65>
LayerCount: 2
Fore
SplineSet
212 100 m 1xa0
 216 162.666666667 249.333333333 196 312 200 c 1
 374.666666667 196 408 162.666666667 412 100 c 1
 408 37.3333333333 374.666666667 4 312 0 c 1
 249.333333333 4 216 37.3333333333 212 100 c 1xa0
150 1304 m 1xc0
 160.666666667 1441.33333333 214.666666667 1522.66666667 312 1548 c 1
 409.333333333 1522.66666667 463.333333333 1441.33333333 474 1304 c 1
 474 986 l 2
 472.666666667 798 432 578.666666667 352 328 c 1
 272 328 l 1
 192 578.666666667 151.333333333 798 150 986 c 2
 150 1304 l 1xc0
EndSplineSet
Validated: 524289
EndChar

StartChar: numbersign
Encoding: 35 35 2
Width: 1850
VWidth: 2048
Flags: W
HStem: 0 21G<317 476.737 841 1000.74> 380 140<134 464 670 988 1194 1523> 880 140<326 656 862 1180 1386 1716> 1380 20G<849.263 1009 1373.26 1533>
LayerCount: 2
Fore
SplineSet
857 1400 m 1
 1009 1400 l 1
 862 1020 l 1
 1234 1020 l 1
 1381 1400 l 1
 1533 1400 l 1
 1386 1020 l 1
 1770 1020 l 1
 1716 880 l 1
 1332 880 l 1
 1194 520 l 1
 1578 520 l 1
 1523 380 l 1
 1140 380 l 1
 993 0 l 1
 841 0 l 1
 988 380 l 1
 616 380 l 1
 469 0 l 1
 317 0 l 1
 464 380 l 1
 80 380 l 1
 134 520 l 1
 518 520 l 1
 656 880 l 1
 272 880 l 1
 326 1020 l 1
 710 1020 l 1
 857 1400 l 1
1042 520 m 1
 1180 880 l 1
 808 880 l 1
 670 520 l 1
 1042 520 l 1
EndSplineSet
Validated: 1
EndChar

StartChar: dollar
Encoding: 36 36 3
Width: 1052
VWidth: 2048
Flags: W
HStem: 0 21G<484 681.333> 1380 20G<373.333 549.333 803.714 816.75>
VStem: 88 56<311.078 352> 352 88<-172 1568> 604 88<-172 1568> 776 192<252.875 450.312> 800 64<1032 1097.16>
LayerCount: 2
Fore
SplineSet
88 352 m 1xfc
 144 352 l 1
 205.333333333 200 344 117.333333333 560 104 c 1
 682.666666667 125.333333333 754.666666667 197.333333333 776 320 c 1xfc
 778.666666667 398.666666667 758.666666667 462.666666667 716 512 c 1
 689.333333333 565.333333333 522.666666667 673.333333333 216 836 c 1
 150.666666667 878.666666667 110.333333333 929.333333333 95 988 c 0
 79.6666666667 1046.66666667 77.3333333333 1100 88 1148 c 0
 120 1310.66666667 254.666666667 1394.66666667 492 1400 c 1
 606.666666667 1397.33333333 704 1360 784 1288 c 1
 808 1400 l 1
 864 1272 l 1
 864 1032 l 1
 800 1032 l 1xfa
 757.333333333 1197.33333333 653.333333333 1285.33333333 488 1296 c 1
 370.666666667 1288 301.333333333 1238.66666667 280 1148 c 1
 269.333333333 1089.33333333 285.333333333 1040 328 1000 c 1
 360 976 437.333333333 932 560 868 c 0
 682.666666667 804 780 734.666666667 852 660 c 1
 934.666666667 566.666666667 973.333333333 453.333333333 968 320 c 1
 938.666666667 130.666666667 802.666666667 24 560 0 c 1
 408 2.66666666667 282.666666667 32 184 88 c 1
 148 -12 l 1
 88 112 l 1
 88 352 l 1xfc
604 1568 m 1
 692 1568 l 1
 692 -172 l 1
 604 -172 l 1
 604 1568 l 1
352 1568 m 1
 440 1568 l 1
 440 -172 l 1
 352 -172 l 1
 352 1568 l 1
EndSplineSet
Validated: 524325
EndChar

StartChar: percent
Encoding: 37 37 4
Width: 1664
VWidth: 2048
Flags: W
HStem: 0 104<1182.58 1313.17> 616 104<1274.83 1405.42> 776 104<262.582 393.172> 1276 94<658 820.656> 1392 104<354.828 484.28>
VStem: 80 140<951.844 1221.11> 528 140<1050.89 1274.02> 1000 140<175.844 445.112> 1448 140<274.888 544.156>
LayerCount: 2
Fore
SplineSet
1362 616 m 5,0,-1
 1154 608 1154 608 1140 304 c 5,3,-1
 1144 108 1144 108 1226 104 c 5,6,-1
 1434 112 1434 112 1448 416 c 5,9,-1
 1444 612 1444 612 1362 616 c 5,0,-1
1588 416 m 5,12,-1
 1582 250 1582 250 1498 127 c 4,15,-1
 1414 4 1414 4 1226 0 c 5,18,-1
 1122 4 1122 4 1066 81 c 4,21,-1
 1010 158 1010 158 1000 304 c 5,24,-1
 1006 470 1006 470 1090 593 c 4,27,-1
 1174 716 1174 716 1362 720 c 5,30,-1
 1466 716 1466 716 1522 639 c 4,33,-1
 1578 562 1578 562 1588 416 c 5,12,-1
442 1392 m 5,36,-1
 234 1384 234 1384 220 1080 c 5,39,-1
 224 884 224 884 306 880 c 5,42,-1
 514 888 514 888 528 1192 c 5,45,-1
 524 1388 524 1388 442 1392 c 5,36,-1
474 -176 m 5,48,-1
 290 -176 l 5,49,-1
 1074 1390 l 5,50,-1
 942 1282 942 1282 658 1276 c 5,53,-1
 665 1235 665 1235 668 1192 c 5,56,-1
 662 1026 662 1026 578 903 c 4,59,-1
 494 780 494 780 306 776 c 5,62,-1
 202 780 202 780 146 857 c 4,65,-1
 90 934 90 934 80 1080 c 5,68,-1
 86 1246 86 1246 170 1369 c 4,71,-1
 254 1492 254 1492 442 1496 c 5,74,-1
 580 1488 580 1488 628 1370 c 5,77,-1
 966 1374 966 1374 1166 1576 c 5,80,-1
 1350 1576 l 5,81,-1
 474 -176 l 5,48,-1
EndSplineSet
Validated: 1
EndChar

StartChar: ampersand
Encoding: 38 38 5
Width: 1376
VWidth: 2048
Flags: W
HStem: -96 52<1242.18 1296> 0 112<405.25 644.273> 1300 124<458.563 636.987>
VStem: 80 192<254.853 495.211> 1034 134<416.08 581.601>
LayerCount: 2
Fore
SplineSet
568 1424 m 0
 637.333333333 1424 706.666666667 1397.33333333 776 1344 c 1
 826.666666667 1297.33333333 852 1232 852 1148 c 0
 850.666666667 1092 832 1044 796 1004 c 1
 604 812 l 1
 698 662 l 1
 742 722 818.666666667 756 928 764 c 1
 1080 756 1160 669.333333333 1168 504 c 1
 1154.66666667 373.333333333 1104 266.666666667 1016 184 c 1
 1096 64 1189.33333333 -12 1296 -44 c 1
 1296 -96 l 1
 976 -96 l 1
 864 88 l 1
 786.666666667 29.3333333333 666.666666667 0 504 0 c 1
 229.333333333 5.33333333333 88 133.333333333 80 384 c 1
 82.6666666667 497.333333333 124 592 204 668 c 1
 408 872 l 1
 300 1056 l 2
 272 1105.33333333 257.333333333 1150.66666667 256 1192 c 1
 265.333333333 1341.33333333 369.333333333 1418.66666667 568 1424 c 0
568 1300 m 1
 470.666666667 1296 418.666666667 1269.33333333 412 1220 c 0
 409.333333333 1193.33333333 417.333333333 1162.66666667 436 1128 c 2
 528 960 l 1
 664 1096 l 2
 684 1117.33333333 697 1136.66666667 703 1154 c 0
 709 1171.33333333 708 1192 700 1216 c 1
 669.333333333 1266.66666667 625.333333333 1294.66666667 568 1300 c 1
496 720 m 1
 328 552 l 1
 292 508 273.333333333 454.666666667 272 392 c 0
 273.333333333 210.666666667 350.666666667 117.333333333 504 112 c 1
 618.666666667 114.666666667 716 148 796 212 c 1
 656 448 l 1
 552 344 l 1
 488 448 l 1
 596 556 l 1
 496 720 l 1
928 628 m 1
 858.666666667 628 804.666666667 603.333333333 766 554 c 1
 936 312 l 1
 1000 373.333333333 1032.66666667 438 1034 506 c 0
 1035.33333333 574 1000 614.666666667 928 628 c 1
EndSplineSet
Validated: 524321
EndChar

StartChar: quotesingle
Encoding: 39 39 6
Width: 440
VWidth: 2048
Flags: W
VStem: 100 240<1360.65 1641.91>
LayerCount: 2
Fore
SplineSet
340 1560 m 0
 340 1453.33333333 314.666666667 1312 264 1136 c 1
 176 1136 l 1
 125.333333333 1312 100 1453.33333333 100 1560 c 0
 101.333333333 1644 141.333333333 1686.66666667 220 1688 c 0
 298.666666667 1686.66666667 338.666666667 1644 340 1560 c 0
EndSplineSet
Validated: 524289
EndChar

StartChar: parenleft
Encoding: 40 40 7
Width: 616
VWidth: 2048
Flags: W
VStem: 80 200<483.023 916.977>
LayerCount: 2
Fore
SplineSet
468 1572 m 1
 548 1572 l 1
 374.666666667 1302.66666667 285.333333333 1012 280 700 c 1
 285.333333333 388 374.666666667 97.3333333333 548 -172 c 1
 468 -172 l 1
 212 65.3333333333 82.6666666667 356 80 700 c 1
 82.6666666667 1044 212 1334.66666667 468 1572 c 1
EndSplineSet
Validated: 524289
EndChar

StartChar: parenright
Encoding: 41 41 8
Width: 616
VWidth: 2048
Flags: W
VStem: 336 200<483.023 916.977>
LayerCount: 2
Fore
SplineSet
148 1572 m 1
 404 1334.66666667 533.333333333 1044 536 700 c 1
 533.333333333 356 404 65.3333333333 148 -172 c 1
 68 -172 l 1
 241.333333333 97.3333333333 330.666666667 388 336 700 c 1
 330.666666667 1012 241.333333333 1302.66666667 68 1572 c 1
 148 1572 l 1
EndSplineSet
Validated: 524289
EndChar

StartChar: asterisk
Encoding: 42 42 9
Width: 1096
VWidth: 2048
Flags: W
HStem: 952 112<108 404 676 972>
VStem: 484 112<576 872 1144 1440>
LayerCount: 2
Fore
SplineSet
484 1440 m 1
 540 1496 l 1
 596 1440 l 1
 596 1144 l 1
 820 1368 l 1
 900 1368 l 1
 900 1288 l 1
 676 1064 l 1
 972 1064 l 1
 1028 1008 l 1
 972 952 l 1
 676 952 l 1
 900 728 l 1
 900 648 l 1
 820 648 l 1
 596 872 l 1
 596 576 l 1
 540 520 l 1
 484 576 l 1
 484 872 l 1
 260 648 l 1
 180 648 l 1
 180 728 l 1
 404 952 l 1
 108 952 l 1
 52 1008 l 1
 108 1064 l 1
 404 1064 l 1
 180 1288 l 1
 180 1368 l 1
 260 1368 l 1
 484 1144 l 1
 484 1440 l 1
EndSplineSet
Validated: 1
EndChar

StartChar: plus
Encoding: 43 43 10
Width: 1100
VWidth: 2048
Flags: W
HStem: 644 112<50 494 606 1050>
VStem: 494 112<200 644 756 1200>
LayerCount: 2
Fore
SplineSet
494 1200 m 1
 606 1200 l 1
 606 756 l 1
 1050 756 l 1
 1050 644 l 1
 606 644 l 1
 606 200 l 1
 494 200 l 1
 494 644 l 1
 50 644 l 1
 50 756 l 1
 494 756 l 1
 494 1200 l 1
EndSplineSet
Validated: 1
EndChar

StartChar: comma
Encoding: 44 44 11
Width: 600
VWidth: 2048
Flags: W
VStem: 164 248<24.272 121.924>
LayerCount: 2
Fore
SplineSet
164 94 m 1
 172 159.333333333 211.333333333 194.666666667 282 200 c 1
 366 194.666666667 409.333333333 128 412 0 c 1
 406.666666667 -98.6666666667 356.666666667 -172.666666667 262 -222 c 0
 242 -231.333333333 227.666666667 -229.833333333 219 -217.5 c 0
 210.333333333 -205.166666667 213.333333333 -190.666666667 228 -174 c 1
 282.666666667 -130 310.666666667 -73.3333333333 312 -4 c 1
 272 -10 l 1
 202 -10.6666666667 166 24 164 94 c 1
EndSplineSet
Validated: 524321
EndChar

StartChar: hyphen
Encoding: 45 45 12
Width: 912
VWidth: 2048
Flags: W
HStem: 560 128<80 832>
LayerCount: 2
Fore
SplineSet
832 560 m 1
 80 560 l 1
 80 688 l 1
 832 688 l 1
 832 560 l 1
EndSplineSet
Validated: 1
EndChar

StartChar: period
Encoding: 46 46 13
Width: 600
VWidth: 2048
Flags: W
HStem: 0 200<220.35 347.65>
VStem: 184 200<36.3496 163.65>
LayerCount: 2
Fore
SplineSet
184 100 m 1
 188 162.666666667 221.333333333 196 284 200 c 1
 346.666666667 196 380 162.666666667 384 100 c 1
 380 37.3333333333 346.666666667 4 284 0 c 1
 221.333333333 4 188 37.3333333333 184 100 c 1
EndSplineSet
Validated: 524289
EndChar

StartChar: slash
Encoding: 47 47 14
Width: 1208
VWidth: 2048
Flags: W
LayerCount: 2
Fore
SplineSet
40 -176 m 1
 916 1576 l 1
 1100 1576 l 1
 224 -176 l 1
 40 -176 l 1
EndSplineSet
Validated: 1
EndChar

StartChar: zero
Encoding: 48 48 15
Width: 1100
VWidth: 2048
Flags: W
HStem: 0 104<461.102 638.898> 1296 104<461.102 638.898>
VStem: 54 192<468.135 931.865> 854 192<468.135 931.865>
LayerCount: 2
Fore
SplineSet
550 1400 m 1
 871.333333333 1392 1036.66666667 1158.66666667 1046 700 c 1
 1036.66666667 241.333333333 871.333333333 8 550 0 c 1
 228.666666667 8 63.3333333333 241.333333333 54 700 c 1
 63.3333333333 1158.66666667 228.666666667 1392 550 1400 c 1
550 1296 m 1
 356.666666667 1290.66666667 255.333333333 1092 246 700 c 1
 255.333333333 308 356.666666667 109.333333333 550 104 c 1
 743.333333333 109.333333333 844.666666667 308 854 700 c 1
 844.666666667 1092 743.333333333 1290.66666667 550 1296 c 1
EndSplineSet
Validated: 524289
EndChar

StartChar: one
Encoding: 49 49 16
Width: 1100
VWidth: 2048
Flags: W
HStem: 0 52<296 318.615 781.385 804> 1380 20G<544.667 636>
VStem: 464 172<104 1050>
LayerCount: 2
Fore
SplineSet
464 104 m 1
 464 1050 l 1
 306 970 l 1
 306 1022 l 1
 558 1400 l 1
 636 1400 l 1
 636 104 l 1
 804 52 l 1
 804 0 l 1
 296 0 l 1
 296 52 l 1
 464 104 l 1
EndSplineSet
Validated: 1
EndChar

StartChar: two
Encoding: 50 50 17
Width: 1100
VWidth: 2048
Flags: W
HStem: 0 104<362 834> 1276 124<458.59 630.804>
VStem: 758 172<854.414 1117.32>
LayerCount: 2
Fore
SplineSet
218 936 m 1
 170 1136 l 1
 218 1312 l 1
 258 1184 l 1
 295.333333333 1322.66666667 391.333333333 1394.66666667 546 1400 c 1
 786 1394.66666667 914 1253.33333333 930 976 c 1
 924.666666667 805.333333333 851.333333333 680 710 600 c 0
 478 466.666666667 362 301.333333333 362 104 c 1
 834 104 l 1
 898 216 l 1
 946 216 l 1
 946 0 l 1
 154 0 l 1
 154 104 l 1
 186 317.333333333 326 502.666666667 574 660 c 1
 691.333333333 726.666666667 752.666666667 832 758 976 c 1
 752.666666667 1169.33333333 682 1269.33333333 546 1276 c 1
 407.333333333 1273.33333333 327.333333333 1160 306 936 c 1
 218 936 l 1
EndSplineSet
Validated: 524289
EndChar

StartChar: three
Encoding: 51 51 18
Width: 1100
VWidth: 2048
Flags: W
HStem: 0 120<400.096 668.906> 704 108<478 599.945> 1280 120<430.252 657.684>
VStem: 86 94<344.474 444> 800 160<967.892 1159.54> 844 172<282.273 510.221>
LayerCount: 2
Fore
SplineSet
164 1116 m 1xf8
 238.666666667 1297.33333333 362.666666667 1392 536 1400 c 1
 810.666666667 1394.66666667 952 1282.66666667 960 1064 c 1xf8
 954.666666667 890.666666667 874.666666667 790.666666667 720 764 c 1
 912 716 1010.66666667 592 1016 392 c 1
 1005.33333333 138.666666667 845.333333333 8 536 0 c 1
 245.333333333 5.33333333333 95.3333333333 153.333333333 86 444 c 1
 180 444 l 1
 204 233.333333333 322.666666667 125.333333333 536 120 c 1
 736 125.333333333 838.666666667 216 844 392 c 1xf4
 838.666666667 589.333333333 716.666666667 693.333333333 478 704 c 1
 478 812 l 1
 687.333333333 828 794.666666667 912 800 1064 c 1
 794.666666667 1202.66666667 706.666666667 1274.66666667 536 1280 c 1
 402.666666667 1272 301.666666667 1202.66666667 233 1072 c 1
 164 1116 l 1xf8
EndSplineSet
Validated: 524289
EndChar

StartChar: four
Encoding: 52 52 19
Width: 1100
VWidth: 2048
Flags: W
HStem: 0 52<430 452.615 915.385 938> 536 112<322 598 770 918> 1380 20G<754.63 770>
VStem: 598 172<104 536 648 1006>
LayerCount: 2
Fore
SplineSet
598 104 m 1
 598 536 l 1
 106 536 l 1
 770 1400 l 1
 770 648 l 1
 918 648 l 1
 974 760 l 1
 994 760 l 1
 994 536 l 1
 770 536 l 1
 770 104 l 1
 938 52 l 1
 938 0 l 1
 430 0 l 1
 430 52 l 1
 598 104 l 1
598 648 m 1
 598 1006 l 1
 322 648 l 1
 598 648 l 1
EndSplineSet
Validated: 1
EndChar

StartChar: five
Encoding: 53 53 20
Width: 1100
VWidth: 2048
Flags: W
HStem: 0 104<401.617 637.437> 896 104<429.053 646.5> 1296 104<379 821>
VStem: 88 121<283.057 380> 820 192<346.109 678.894>
LayerCount: 2
Fore
SplineSet
289 1400 m 1
 956 1400 l 1
 956 1132 l 1
 904 1132 l 1
 821 1296 l 1
 379 1296 l 1
 281 904 l 1
 337 962.666666667 423.333333333 994.666666667 540 1000 c 1
 846.666666667 993.333333333 1004 834.666666667 1012 524 c 1
 1004 181.333333333 846.666666667 6.66666666667 540 0 c 1
 268 6.66666666667 117.333333333 133.333333333 88 380 c 1
 209 380 l 1
 223.666666667 201.333333333 334 109.333333333 540 104 c 1
 721.333333333 109.333333333 814.666666667 249.333333333 820 524 c 1
 812 766.666666667 718.666666667 890.666666667 540 896 c 1
 433.333333333 894.666666667 354.333333333 849.333333333 303 760 c 1
 129 760 l 1
 289 1400 l 1
EndSplineSet
Validated: 524289
EndChar

StartChar: six
Encoding: 54 54 21
Width: 1100
VWidth: 2048
Flags: W
HStem: 0 104<440.693 653.806> 712 104<499.163 684.383> 1296 104<515.93 710.22>
VStem: 100 192<560 799.991> 808 192<286.209 569.899>
LayerCount: 2
Fore
SplineSet
904 1232 m 1
 844 1112 l 1
 816 1112 l 1
 805.333333333 1233.33333333 733.333333333 1294.66666667 600 1296 c 0
 506.666666667 1294.66666667 433.666666667 1230.33333333 381 1103 c 0
 328.333333333 975.666666667 298.666666667 794.666666667 292 560 c 1
 332 724 434.666666667 809.333333333 600 816 c 1
 860 810.666666667 993.333333333 682.666666667 1000 432 c 1
 994.666666667 149.333333333 844.666666667 5.33333333333 550 0 c 1
 410 4 300.666666667 48.3333333333 222 133 c 0
 143.333333333 217.666666667 102.666666667 360 100 560 c 1
 105.333333333 809.333333333 153 1010.33333333 243 1163 c 0
 333 1315.66666667 450.666666667 1394.66666667 596 1400 c 1
 762.666666667 1394.66666667 865.333333333 1338.66666667 904 1232 c 1
550 104 m 1
 716.666666667 110.666666667 802.666666667 220 808 432 c 1
 802.666666667 613.333333333 733.333333333 706.666666667 600 712 c 1
 426.666666667 706.666666667 334 575.333333333 322 318 c 1
 334 178 410 106.666666667 550 104 c 1
EndSplineSet
Validated: 524289
EndChar

StartChar: seven
Encoding: 55 55 22
Width: 1100
VWidth: 2048
Flags: W
HStem: 0 52<176 198.615> 1288 112<284 820>
VStem: 344 180<104 307.238>
LayerCount: 2
Fore
SplineSet
136 1400 m 1
 1020 1400 l 1
 928 1220 l 1
 680 942.666666667 545.333333333 572 524 108 c 1
 524 0 l 1
 176 0 l 1
 176 52 l 1
 344 104 l 1
 370.666666667 600 529.333333333 994.666666667 820 1288 c 1
 284 1288 l 1
 188 1096 l 1
 80 1096 l 1
 136 1400 l 1
EndSplineSet
Validated: 524289
EndChar

StartChar: eight
Encoding: 56 56 23
Width: 1100
VWidth: 2048
Flags: W
HStem: 0 104<462.855 637.145> 728 104<458.604 641.396> 1296 104<445.979 654.021>
VStem: 134 192<267.584 565.215> 166 160<916.265 1162.45> 774 192<267.584 565.215> 774 160<916.265 1162.45>
LayerCount: 2
Fore
SplineSet
838 742 m 1xea
 920.666666667 674 963.333333333 565.333333333 966 416 c 1
 960.666666667 144 822 5.33333333333 550 0 c 1
 278 5.33333333333 139.333333333 144 134 416 c 1xf4
 136.666666667 565.333333333 179.333333333 674 262 742 c 1
 203.333333333 799.333333333 171.333333333 904 166 1056 c 1
 187.333333333 1277.33333333 315.333333333 1392 550 1400 c 1
 784.666666667 1392 912.666666667 1277.33333333 934 1056 c 1
 928.666666667 904 896.666666667 799.333333333 838 742 c 1xea
550 104 m 1
 694 109.333333333 768.666666667 213.333333333 774 416 c 1
 768.666666667 618.666666667 694 722.666666667 550 728 c 1
 406 722.666666667 331.333333333 618.666666667 326 416 c 1
 331.333333333 213.333333333 406 109.333333333 550 104 c 1
692 810 m 1
 745.333333333 870 772.666666667 952 774 1056 c 1
 770 1212 695.333333333 1292 550 1296 c 1
 404.666666667 1292 330 1212 326 1056 c 1xea
 327.333333333 952 354.666666667 870 408 810 c 1
 449.333333333 823.333333333 496.666666667 830.666666667 550 832 c 0
 603.333333333 830.666666667 650.666666667 823.333333333 692 810 c 1
EndSplineSet
Validated: 524289
EndChar

StartChar: nine
Encoding: 57 57 24
Width: 1100
VWidth: 2048
Flags: W
HStem: 0 104<389.78 584.07> 584 104<415.617 600.837> 1296 104<446.194 659.307>
VStem: 100 192<830.101 1113.79> 808 192<600.009 840>
LayerCount: 2
Fore
SplineSet
196 168 m 1
 256 288 l 1
 284 288 l 1
 294.666666667 166.666666667 366.666666667 105.333333333 500 104 c 0
 593.333333333 105.333333333 666.333333333 169.666666667 719 297 c 0
 771.666666667 424.333333333 801.333333333 605.333333333 808 840 c 1
 768 676 665.333333333 590.666666667 500 584 c 1
 240 589.333333333 106.666666667 717.333333333 100 968 c 1
 105.333333333 1250.66666667 255.333333333 1394.66666667 550 1400 c 1
 690 1396 799.333333333 1351.66666667 878 1267 c 0
 956.666666667 1182.33333333 997.333333333 1040 1000 840 c 1
 994.666666667 590.666666667 947 389.666666667 857 237 c 0
 767 84.3333333333 649.333333333 5.33333333333 504 0 c 1
 337.333333333 5.33333333333 234.666666667 61.3333333333 196 168 c 1
550 1296 m 1
 383.333333333 1289.33333333 297.333333333 1180 292 968 c 1
 297.333333333 786.666666667 366.666666667 693.333333333 500 688 c 1
 673.333333333 693.333333333 766 824.666666667 778 1082 c 1
 766 1222 690 1293.33333333 550 1296 c 1
EndSplineSet
Validated: 524289
EndChar

StartChar: less
Encoding: 60 60 27
Width: 928
VWidth: 2048
Flags: W
LayerCount: 2
Fore
SplineSet
80 700 m 1
 700 1320 l 1
 848 1320 l 1
 228 700 l 1
 848 80 l 1
 700 80 l 1
 80 700 l 1
EndSplineSet
Validated: 1
EndChar

StartChar: equal
Encoding: 61 61 28
Width: 1100
VWidth: 2048
Flags: W
HStem: 398 152<110 990> 710 152<110 990>
LayerCount: 2
Fore
SplineSet
110 862 m 1
 990 862 l 1
 990 710 l 1
 110 710 l 1
 110 862 l 1
110 550 m 1
 990 550 l 1
 990 398 l 1
 110 398 l 1
 110 550 l 1
EndSplineSet
Validated: 1
EndChar

StartChar: greater
Encoding: 62 62 29
Width: 928
VWidth: 2048
Flags: W
LayerCount: 2
Fore
SplineSet
848 700 m 1
 228 80 l 1
 80 80 l 1
 700 700 l 1
 80 1320 l 1
 228 1320 l 1
 848 700 l 1
EndSplineSet
Validated: 1
EndChar

StartChar: question
Encoding: 63 63 30
Width: 988
VWidth: 2048
Flags: W
HStem: 0 200<442.35 569.65> 1412 104<364.78 601.476>
VStem: 410 192<31.2109 167.66 460 775.051> 726 192<1044.96 1281.04>
LayerCount: 2
Fore
SplineSet
406 100 m 1
 410 162.666666667 443.333333333 196 506 200 c 1
 568.666666667 196 602 161.333333333 606 96 c 1
 602 36 568.666666667 4 506 0 c 1
 443.333333333 4 410 37.3333333333 406 100 c 1
80 1164 m 1
 84 1385.33333333 226 1502.66666667 506 1516 c 1
 771.333333333 1502.66666667 908.666666667 1386.66666667 918 1168 c 1
 908.666666667 933.333333333 803.333333333 801.333333333 602 772 c 1
 602 460 l 1
 534 324 l 1
 515.333333333 304 496.666666667 304 478 324 c 1
 410 460 l 1
 410 828 l 1
 614 857.333333333 719.333333333 970.666666667 726 1168 c 1
 719.333333333 1324 646 1405.33333333 506 1412 c 1
 340.666666667 1406.66666667 247.333333333 1353.33333333 226 1252 c 1
 259.333333333 1234.66666667 277.333333333 1205.33333333 280 1164 c 1
 276 1101.33333333 242.666666667 1068 180 1064 c 1
 117.333333333 1068 84 1101.33333333 80 1164 c 1
EndSplineSet
Validated: 524321
EndChar

StartChar: at
Encoding: 64 64 31
Width: 1388
VWidth: 2048
Flags: W
HStem: 0 104<588.069 870.2> 440 132<589.163 730.688 1006.75 1092.23> 972 104<596.389 773.244> 1296 104<544.854 827.069>
VStem: 80 144<515.122 898.723> 372 144<661.527 883.735> 832 112<658.636 930.182> 1156 144<717.39 997.665>
LayerCount: 2
Fore
SplineSet
660 1400 m 1
 860 1394.66666667 1014.66666667 1342 1124 1242 c 0
 1233.33333333 1142 1292 1018.66666667 1300 872 c 1
 1297.33333333 768 1272.66666667 671.333333333 1226 582 c 0
 1179.33333333 492.666666667 1122.66666667 445.333333333 1056 440 c 1
 989.333333333 445.333333333 926.666666667 480 868 544 c 1
 804 474.666666667 730.666666667 440 648 440 c 1
 566.666666667 442.666666667 500.666666667 474.666666667 450 536 c 0
 399.333333333 597.333333333 373.333333333 678 372 778 c 1
 378.666666667 970 476.666666667 1069.33333333 666 1076 c 1
 723.333333333 1074.66666667 778.666666667 1065.33333333 832 1048 c 2
 944 1012 l 1
 944 664 l 1
 981.333333333 605.333333333 1018.66666667 574.666666667 1056 572 c 1
 1088 576 1112 609.666666667 1128 673 c 0
 1144 736.333333333 1153.33333333 801.333333333 1156 868 c 1
 1150.66666667 993.333333333 1108 1094.66666667 1028 1172 c 0
 948 1249.33333333 825.333333333 1290.66666667 660 1296 c 1
 542.666666667 1293.33333333 440.666666667 1240 354 1136 c 0
 267.333333333 1032 224 881.333333333 224 684 c 1
 229.333333333 516 275.333333333 378 362 270 c 0
 448.666666667 162 577.333333333 106.666666667 748 104 c 1
 940 114.666666667 1088 213.333333333 1192 400 c 1
 1308 344 l 1
 1188 122.666666667 1001.33333333 8 748 0 c 1
 521.333333333 5.33333333333 354.666666667 70.6666666667 248 196 c 0
 141.333333333 321.333333333 85.3333333333 484 80 684 c 1
 82.6666666667 918.666666667 137.333333333 1094.66666667 244 1212 c 0
 350.666666667 1329.33333333 489.333333333 1392 660 1400 c 1
832 914 m 1
 788 951.333333333 732.666666667 970.666666667 666 972 c 1
 571.333333333 965.333333333 521.333333333 900.666666667 516 778 c 1
 518.666666667 707.333333333 533 655.666666667 559 623 c 0
 585 590.333333333 614.666666667 573.333333333 648 572 c 0
 721.333333333 574.666666667 782.666666667 613.333333333 832 688 c 1
 832 914 l 1
EndSplineSet
Validated: 524289
EndChar

StartChar: A
Encoding: 65 65 32
Width: 1556
VWidth: 2048
Flags: W
HStem: 0 52<80 102.615 1453.38 1476> 404 128<536 932> 1380 20G<744.222 760.58>
LayerCount: 2
Fore
SplineSet
536 532 m 1
 932 532 l 1
 728 1016 l 1
 536 532 l 1
752 1400 m 1
 1308 104 l 1
 1476 52 l 1
 1476 0 l 1
 1012 0 l 1
 1116 104 l 1
 988 404 l 1
 488 404 l 1
 372 104 l 1
 476 0 l 1
 80 0 l 1
 80 52 l 1
 248 104 l 1
 752 1400 l 1
EndSplineSet
Validated: 1
EndChar

StartChar: B
Encoding: 66 66 33
Width: 1332
VWidth: 2048
Flags: W
HStem: 0 104<440 890.633> 0 52<80 102.615> 648 104<440 816.219> 1296 104<440 818.301> 1348 52<80 102.615>
VStem: 248 192<104 648 752 1296> 940 192<891.309 1156.17> 1060 192<260.637 491.982>
LayerCount: 2
Fore
SplineSet
440 1296 m 1x36
 440 752 l 1
 708 752 l 2
 790.666666667 753.333333333 849.666666667 777.333333333 885 824 c 0
 920.333333333 870.666666667 938.666666667 937.333333333 940 1024 c 0
 938.666666667 1110.66666667 920.333333333 1177.33333333 885 1224 c 0
 849.666666667 1270.66666667 790.666666667 1294.66666667 708 1296 c 2
 440 1296 l 1x36
440 648 m 1
 440 104 l 1
 764 104 l 1
 958.666666667 109.333333333 1057.33333333 200 1060 376 c 1xa5
 1057.33333333 552 958.666666667 642.666666667 764 648 c 1
 440 648 l 1
248 104 m 1
 248 1296 l 1xb5
 80 1348 l 1
 80 1400 l 1x2d
 708 1400 l 1
 820 1397.33333333 917.333333333 1368 1000 1312 c 0
 1082.66666667 1256 1126.66666667 1160 1132 1024 c 1x36
 1129.33333333 888 1078.66666667 789.333333333 980 728 c 1
 1158.66666667 686.666666667 1249.33333333 569.333333333 1252 376 c 1
 1249.33333333 133.333333333 1086.66666667 8 764 0 c 1xb5
 80 0 l 1
 80 52 l 1x65
 248 104 l 1
EndSplineSet
Validated: 524289
EndChar

StartChar: C
Encoding: 67 67 34
Width: 1332
VWidth: 2048
Flags: W
HStem: 0 104<598.833 875.576> 1296 104<598.833 867.891>
VStem: 80 192<502.914 902.574> 1132 68<960 1018.01>
LayerCount: 2
Fore
SplineSet
748 1400 m 1
 876 1389.33333333 974.666666667 1354.66666667 1044 1296 c 1
 1132 1384 l 1
 1200 1180 l 1
 1200 960 l 1
 1132 960 l 1
 1070.66666667 1176 942.666666667 1288 748 1296 c 1
 438.666666667 1290.66666667 280 1093.33333333 272 704 c 1
 280 309.333333333 438.666666667 109.333333333 748 104 c 1
 942.666666667 112 1089.33333333 208 1188 392 c 1
 1252 328 l 1
 1153.33333333 114.666666667 985.333333333 5.33333333333 748 0 c 1
 316 5.33333333333 93.3333333333 240 80 704 c 1
 93.3333333333 1162.66666667 316 1394.66666667 748 1400 c 1
EndSplineSet
Validated: 524289
EndChar

StartChar: D
Encoding: 68 68 35
Width: 1328
VWidth: 2048
Flags: W
HStem: 0 104<440 795.117> 0 52<80 102.615> 1296 104<440 795.117> 1348 52<80 102.615>
VStem: 248 192<104 1296> 1056 192<484.341 915.659>
LayerCount: 2
Fore
SplineSet
248 1296 m 1xac
 80 1348 l 1
 80 1400 l 1x1c
 680 1400 l 1
 1050.66666667 1394.66666667 1240 1161.33333333 1248 700 c 1
 1240 238.666666667 1050.66666667 5.33333333333 680 0 c 1xac
 80 0 l 1
 80 52 l 1x4c
 248 104 l 1
 248 1296 l 1xac
680 1296 m 1xac
 440 1296 l 1
 440 104 l 1
 680 104 l 1
 925.333333333 112 1050.66666667 310.666666667 1056 700 c 1
 1050.66666667 1089.33333333 925.333333333 1288 680 1296 c 1xac
EndSplineSet
Validated: 524289
EndChar

StartChar: E
Encoding: 69 69 36
Width: 1200
VWidth: 2048
Flags: W
HStem: 0 104<440 968> 0 52<80 102.615> 648 104<440 860> 1296 104<440 968> 1348 52<80 102.615>
VStem: 248 192<104 648 752 1296>
LayerCount: 2
Fore
SplineSet
248 104 m 1xa4
 248 1296 l 1xb4
 80 1348 l 1
 80 1400 l 1
 1120 1400 l 1x2c
 1120 1096 l 1
 1068 1096 l 1
 968 1296 l 1
 440 1296 l 1
 440 752 l 1
 860 752 l 1
 916 920 l 1
 968 920 l 1
 968 480 l 1
 916 480 l 1
 860 648 l 1
 440 648 l 1
 440 104 l 1
 968 104 l 1xb4
 1068 304 l 1
 1120 304 l 1
 1120 0 l 1
 80 0 l 1
 80 52 l 1x64
 248 104 l 1xa4
EndSplineSet
Validated: 1
EndChar

StartChar: F
Encoding: 70 70 37
Width: 1200
VWidth: 2048
Flags: W
HStem: 0 52<80 102.615 585.385 608> 648 104<440 860> 1296 104<440 968> 1348 52<80 102.615>
VStem: 248 192<104 648 752 1296>
LayerCount: 2
Fore
SplineSet
248 104 m 1xe8
 248 1296 l 1xe8
 80 1348 l 1
 80 1400 l 1
 1120 1400 l 1xd8
 1120 1096 l 1
 1068 1096 l 1
 968 1296 l 1
 440 1296 l 1
 440 752 l 1
 860 752 l 1
 916 920 l 1
 968 920 l 1
 968 480 l 1
 916 480 l 1
 860 648 l 1
 440 648 l 1
 440 104 l 1
 608 52 l 1
 608 0 l 1
 80 0 l 1
 80 52 l 1
 248 104 l 1xe8
EndSplineSet
Validated: 1
EndChar

StartChar: G
Encoding: 71 71 38
Width: 1564
VWidth: 2048
Flags: W
HStem: 0 104<598.833 926.963> 568 112<764 948 1300 1484> 1296 104<598.833 867.891>
VStem: 80 192<502.914 902.574> 1028 192<166.547 464> 1132 68<960 1018.01>
LayerCount: 2
Fore
SplineSet
748 1400 m 1xf8
 876 1389.33333333 974.666666667 1354.66666667 1044 1296 c 1
 1132 1384 l 1
 1200 1180 l 1
 1200 960 l 1
 1132 960 l 1xf4
 1070.66666667 1176 942.666666667 1288 748 1296 c 1
 438.666666667 1290.66666667 280 1093.33333333 272 704 c 1
 280 309.333333333 438.666666667 109.333333333 748 104 c 1
 929.333333333 109.333333333 1022.66666667 144 1028 208 c 1
 1028 464 l 1
 948 568 l 1
 764 568 l 1
 764 680 l 1
 1484 680 l 1
 1484 568 l 1
 1300 568 l 1
 1220 464 l 1
 1220 208 l 1
 1213.33333333 74.6666666667 1056 5.33333333333 748 0 c 1
 316 5.33333333333 93.3333333333 240 80 704 c 1
 93.3333333333 1162.66666667 316 1394.66666667 748 1400 c 1xf8
EndSplineSet
Validated: 524289
EndChar

StartChar: H
Encoding: 72 72 39
Width: 1520
VWidth: 2048
Flags: W
HStem: 0 52<80 102.615 1417.38 1440> 648 104<440 1080> 1348 52<80 102.615 1417.38 1440>
VStem: 248 192<104 648 752 1296> 1080 192<104 648 752 1296>
CounterMasks: 1 e0
LayerCount: 2
Fore
SplineSet
248 104 m 1
 248 1296 l 1
 80 1348 l 1
 80 1400 l 1
 544 1400 l 1
 440 1296 l 1
 440 752 l 1
 1080 752 l 1
 1080 1296 l 1
 976 1400 l 1
 1440 1400 l 1
 1440 1348 l 1
 1272 1296 l 1
 1272 104 l 1
 1440 52 l 1
 1440 0 l 1
 976 0 l 1
 1080 104 l 1
 1080 648 l 1
 440 648 l 1
 440 104 l 1
 544 0 l 1
 80 0 l 1
 80 52 l 1
 248 104 l 1
EndSplineSet
Validated: 1
EndChar

StartChar: I
Encoding: 73 73 40
Width: 688
VWidth: 2048
Flags: W
HStem: 0 52<80 102.615 585.385 608> 1348 52<80 102.615 585.385 608>
VStem: 248 192<104 1296>
LayerCount: 2
Fore
SplineSet
248 104 m 1
 248 1296 l 1
 80 1348 l 1
 80 1400 l 1
 608 1400 l 1
 608 1348 l 1
 440 1296 l 1
 440 104 l 1
 608 52 l 1
 608 0 l 1
 80 0 l 1
 80 52 l 1
 248 104 l 1
EndSplineSet
Validated: 1
EndChar

StartChar: J
Encoding: 74 74 41
Width: 1448
VWidth: 2048
Flags: W
HStem: 0 108<372.879 613.83> 1276 124<428 736 928 1236>
VStem: 736 192<289.533 1276>
LayerCount: 2
Fore
SplineSet
736 472 m 1
 736 1276 l 1
 428 1276 l 1
 348 1116 l 1
 296 1116 l 1
 296 1400 l 1
 1368 1400 l 1
 1368 1116 l 1
 1316 1116 l 1
 1236 1276 l 1
 928 1276 l 1
 928 472 l 1
 922.666666667 293.333333333 883.333333333 170.666666667 810 104 c 0
 736.666666667 37.3333333333 634.666666667 2.66666666667 504 0 c 1
 378.666666667 2.66666666667 278.666666667 30 204 82 c 0
 129.333333333 134 88 209.333333333 80 308 c 1
 85.3333333333 385.333333333 124.666666667 424 198 424 c 0
 271.333333333 424 310.666666667 385.333333333 316 308 c 1
 310.666666667 266.666666667 292 235.333333333 260 214 c 1
 296 148.666666667 377.333333333 113.333333333 504 108 c 1
 586.666666667 108 644.666666667 133.333333333 678 184 c 0
 711.333333333 234.666666667 730.666666667 330.666666667 736 472 c 1
EndSplineSet
Validated: 524289
EndChar

StartChar: K
Encoding: 75 75 42
Width: 1466
VWidth: 2048
Flags: W
HStem: 0 52<80 102.615 585.385 608> 1348 52<80 102.615 585.385 608>
VStem: 248 192<104 496 708 1296>
LayerCount: 2
Fore
SplineSet
248 104 m 1
 248 1296 l 1
 80 1348 l 1
 80 1400 l 1
 608 1400 l 1
 608 1348 l 1
 440 1296 l 1
 440 708 l 1
 1036 1304 l 1
 904 1348 l 1
 904 1400 l 1
 1334 1400 l 1
 1334 1348 l 1
 1244 1304 l 1
 752 812 l 1
 1288 100 l 1
 1386 52 l 1
 1386 0 l 1
 946 0 l 1
 946 52 l 1
 1044 100 l 1
 640 696 l 1
 440 496 l 1
 440 104 l 1
 608 52 l 1
 608 0 l 1
 80 0 l 1
 80 52 l 1
 248 104 l 1
EndSplineSet
Validated: 1
EndChar

StartChar: L
Encoding: 76 76 43
Width: 1232
VWidth: 2048
Flags: W
HStem: 0 104<440 988> 0 52<80 102.615> 1348 52<80 102.615 585.385 608>
VStem: 248 192<104 1296>
LayerCount: 2
Fore
SplineSet
248 104 m 1xb0
 248 1296 l 1
 80 1348 l 1
 80 1400 l 1
 608 1400 l 1
 608 1348 l 1
 440 1296 l 1
 440 104 l 1
 988 104 l 1xb0
 1072 272 l 1
 1152 272 l 1
 1152 0 l 1
 80 0 l 1
 80 52 l 1x70
 248 104 l 1xb0
EndSplineSet
Validated: 1
EndChar

StartChar: M
Encoding: 77 77 44
Width: 1872
VWidth: 2048
Flags: W
HStem: 0 52<80 102.615 585.385 608 1264 1286.62 1769.38 1792> 1348 52<80 102.615 1769.38 1792>
VStem: 248 192<104 1296> 1432 192<104 1296>
LayerCount: 2
Fore
SplineSet
248 104 m 1
 248 1296 l 1
 80 1348 l 1
 80 1400 l 1
 568 1400 l 1
 936 296 l 1
 1304 1400 l 1
 1792 1400 l 1
 1792 1348 l 1
 1624 1296 l 1
 1624 104 l 1
 1792 52 l 1
 1792 0 l 1
 1264 0 l 1
 1264 52 l 1
 1432 104 l 1
 1432 1296 l 1
 944 0 l 1
 928 0 l 1
 440 1296 l 1
 440 104 l 1
 608 52 l 1
 608 0 l 1
 80 0 l 1
 80 52 l 1
 248 104 l 1
EndSplineSet
Validated: 1
EndChar

StartChar: N
Encoding: 78 78 45
Width: 1592
VWidth: 2048
Flags: W
HStem: 0 52<80 102.615 585.385 608 1489.38 1512> 1348 52<80 102.615 984 1006.62 1489.38 1512>
VStem: 248 192<104 1264> 1152 192<136 1296>
LayerCount: 2
Fore
SplineSet
248 104 m 1
 248 1296 l 1
 80 1348 l 1
 80 1400 l 1
 520 1400 l 1
 1152 136 l 1
 1152 1296 l 1
 984 1348 l 1
 984 1400 l 1
 1512 1400 l 1
 1512 1348 l 1
 1344 1296 l 1
 1344 104 l 1
 1512 52 l 1
 1512 0 l 1
 1072 0 l 1
 440 1264 l 1
 440 104 l 1
 608 52 l 1
 608 0 l 1
 80 0 l 1
 80 52 l 1
 248 104 l 1
EndSplineSet
Validated: 1
EndChar

StartChar: O
Encoding: 79 79 46
Width: 1424
VWidth: 2048
Flags: W
HStem: 0 104<580.406 843.594> 1296 104<580.406 843.594>
VStem: 80 192<500.17 899.83> 1152 192<500.17 899.83>
LayerCount: 2
Fore
SplineSet
712 1400 m 1
 1125.33333333 1394.66666667 1336 1161.33333333 1344 700 c 1
 1336 238.666666667 1125.33333333 5.33333333333 712 0 c 1
 298.666666667 5.33333333333 88 238.666666667 80 700 c 1
 88 1161.33333333 298.666666667 1394.66666667 712 1400 c 1
712 1296 m 1
 426.666666667 1290.66666667 280 1092 272 700 c 1
 280 308 426.666666667 109.333333333 712 104 c 1
 997.333333333 109.333333333 1144 308 1152 700 c 1
 1144 1092 997.333333333 1290.66666667 712 1296 c 1
EndSplineSet
Validated: 524289
EndChar

StartChar: P
Encoding: 80 80 47
Width: 1212
VWidth: 2048
Flags: W
HStem: 0 52<80 102.615 581.923 604> 648 104<440 818.301> 1296 104<440 818.301> 1348 52<80 102.615>
VStem: 248 192<104 648 752 1296> 940 192<891.825 1156.17>
LayerCount: 2
Fore
SplineSet
440 1296 m 1xec
 440 752 l 1
 708 752 l 2
 790.666666667 753.333333333 849.666666667 777.333333333 885 824 c 0
 920.333333333 870.666666667 938.666666667 937.333333333 940 1024 c 0
 938.666666667 1110.66666667 920.333333333 1177.33333333 885 1224 c 0
 849.666666667 1270.66666667 790.666666667 1294.66666667 708 1296 c 2
 440 1296 l 1xec
440 648 m 1
 440 104 l 1
 604 52 l 1
 604 0 l 1
 80 0 l 1
 80 52 l 1
 248 104 l 1
 248 1296 l 1xec
 80 1348 l 1
 80 1400 l 1xdc
 708 1400 l 1
 820 1397.33333333 917.333333333 1368 1000 1312 c 0
 1082.66666667 1256 1126.66666667 1160 1132 1024 c 1
 1126.66666667 888 1082.66666667 792 1000 736 c 0
 917.333333333 680 820 650.666666667 708 648 c 1
 440 648 l 1
EndSplineSet
Validated: 524289
EndChar

StartChar: Q
Encoding: 81 81 48
Width: 1424
VWidth: 2048
Flags: W
HStem: -388 104<1133.58 1304.37> 0 104<577.402 822.717> 304 104<635.535 758.055> 1296 104<580.377 843.594>
VStem: 80 190<497.769 899.83> 1152 192<493.069 899.83>
LayerCount: 2
Fore
SplineSet
712 1400 m 1
 1125.33333333 1394.66666667 1336 1161.33333333 1344 700 c 1
 1337.33333333 357.333333333 1222 142 998 54 c 1
 1031.33333333 -168.666666667 1098.66666667 -281.333333333 1200 -284 c 1
 1313.33333333 -280 1402.66666667 -225.333333333 1468 -120 c 1
 1498.66666667 -105.333333333 1514.66666667 -121.333333333 1516 -168 c 1
 1468 -309.333333333 1362.66666667 -382.666666667 1200 -388 c 1
 1012 -385.333333333 894.666666667 -253.666666667 848 7 c 1
 848 10 l 1
 818.666666667 4.66666666667 773.333333333 1.33333333333 712 0 c 0
 298.666666667 5.33333333333 88 238.666666667 80 700 c 1
 88 1161.33333333 298.666666667 1394.66666667 712 1400 c 1
270 700 m 1
 276.666666667 489.333333333 320.666666667 336 402 240 c 1
 466 348 569.333333333 404 712 408 c 1
 854.666666667 404 940.666666667 330.666666667 970 188 c 1
 1087.33333333 285.333333333 1148 456 1152 700 c 1
 1144 1092 997.333333333 1290.66666667 712 1296 c 1
 426.666666667 1290.66666667 279.333333333 1092 270 700 c 1
824 118 m 1
 802.666666667 240.666666667 765.333333333 302.666666667 712 304 c 1
 632 301.333333333 568 248.666666667 520 146 c 1
 574.666666667 119.333333333 638.666666667 105.333333333 712 104 c 0
 753.333333333 104.666666667 790.666666667 109.333333333 824 118 c 1
EndSplineSet
Validated: 524321
EndChar

StartChar: R
Encoding: 82 82 49
Width: 1472
VWidth: 2048
Flags: W
HStem: 0 52<80 102.615 1369.38 1392> 648 104<440 748> 1296 104<440 818.301> 1348 52<80 102.615>
VStem: 248 192<104 648 752 1296> 940 192<888.296 1156.17>
LayerCount: 2
Fore
SplineSet
440 1296 m 1xec
 440 752 l 1
 708 752 l 2
 790.666666667 753.333333333 849.666666667 777.333333333 885 824 c 0
 920.333333333 870.666666667 938.666666667 937.333333333 940 1024 c 0
 938.666666667 1110.66666667 920.333333333 1177.33333333 885 1224 c 0
 849.666666667 1270.66666667 790.666666667 1294.66666667 708 1296 c 2
 440 1296 l 1xec
440 648 m 1
 440 104 l 1
 544 0 l 1
 80 0 l 1
 80 52 l 1
 248 104 l 1
 248 1296 l 1xec
 80 1348 l 1
 80 1400 l 1xdc
 708 1400 l 1
 820 1397.33333333 917.333333333 1368 1000 1312 c 0
 1082.66666667 1256 1126.66666667 1160 1132 1024 c 1
 1128 921.333333333 1107 843.666666667 1069 791 c 0
 1031 738.333333333 985.333333333 705.333333333 932 692 c 1
 1224 104 l 1
 1392 52 l 1
 1392 0 l 1
 916 0 l 1
 1020 104 l 1
 748 648 l 1
 440 648 l 1
EndSplineSet
Validated: 524289
EndChar

StartChar: S
Encoding: 83 83 50
Width: 1052
VWidth: 2048
Flags: W
HStem: 0 21G<484 681.333> 1380 20G<373.333 549.333 803.714 816.75>
VStem: 88 56<311.078 352> 776 192<252.875 450.312> 800 64<1032 1097.16>
LayerCount: 2
Fore
SplineSet
88 352 m 1xf0
 144 352 l 1
 205.333333333 200 344 117.333333333 560 104 c 1
 682.666666667 125.333333333 754.666666667 197.333333333 776 320 c 1xf0
 778.666666667 398.666666667 758.666666667 462.666666667 716 512 c 1
 689.333333333 565.333333333 522.666666667 673.333333333 216 836 c 1
 150.666666667 878.666666667 110.333333333 929.333333333 95 988 c 0
 79.6666666667 1046.66666667 77.3333333333 1100 88 1148 c 0
 120 1310.66666667 254.666666667 1394.66666667 492 1400 c 1
 606.666666667 1397.33333333 704 1360 784 1288 c 1
 808 1400 l 1
 864 1272 l 1
 864 1032 l 1
 800 1032 l 1xe8
 757.333333333 1197.33333333 653.333333333 1285.33333333 488 1296 c 1
 370.666666667 1288 301.333333333 1238.66666667 280 1148 c 1
 269.333333333 1089.33333333 285.333333333 1040 328 1000 c 1
 360 976 437.333333333 932 560 868 c 0
 682.666666667 804 780 734.666666667 852 660 c 1
 934.666666667 566.666666667 973.333333333 453.333333333 968 320 c 1
 938.666666667 130.666666667 802.666666667 24 560 0 c 1
 408 2.66666666667 282.666666667 32 184 88 c 1
 148 -12 l 1
 88 112 l 1
 88 352 l 1xf0
EndSplineSet
Validated: 524321
EndChar

StartChar: T
Encoding: 84 84 51
Width: 1296
VWidth: 2048
Flags: W
HStem: 0 52<384 406.615 889.385 912> 1296 104<184 552 744 1112>
VStem: 80 52<1128 1150.62> 552 192<104 1296> 1164 52<1128 1150.62>
CounterMasks: 1 38
LayerCount: 2
Fore
SplineSet
552 104 m 1
 552 1296 l 1
 184 1296 l 1
 132 1128 l 1
 80 1128 l 1
 80 1400 l 1
 1216 1400 l 1
 1216 1128 l 1
 1164 1128 l 1
 1112 1296 l 1
 744 1296 l 1
 744 104 l 1
 912 52 l 1
 912 0 l 1
 384 0 l 1
 384 52 l 1
 552 104 l 1
EndSplineSet
Validated: 1
EndChar

StartChar: U
Encoding: 85 85 52
Width: 1496
VWidth: 2048
Flags: W
HStem: 0 104<618.69 877.31> 1348 52<80 102.615 1393.38 1416>
VStem: 248 192<285.979 1296> 1056 192<285.979 1296>
LayerCount: 2
Fore
SplineSet
80 1400 m 1
 544 1400 l 1
 440 1296 l 1
 440 412 l 1
 445.333333333 209.333333333 548 106.666666667 748 104 c 1
 948 106.666666667 1050.66666667 209.333333333 1056 412 c 1
 1056 1296 l 1
 952 1400 l 1
 1416 1400 l 1
 1416 1348 l 1
 1248 1296 l 1
 1248 412 l 1
 1237.33333333 145.333333333 1070.66666667 8 748 0 c 1
 425.333333333 8 258.666666667 145.333333333 248 412 c 1
 248 1296 l 1
 80 1348 l 1
 80 1400 l 1
EndSplineSet
Validated: 524289
EndChar

StartChar: V
Encoding: 86 86 53
Width: 1496
VWidth: 2048
Flags: W
HStem: 0 21G<730.068 765.932> 1380 20G<80 564 932 1416>
LayerCount: 2
Fore
SplineSet
80 1400 m 1
 564 1400 l 1
 420 1296 l 1
 748 312 l 1
 1076 1296 l 1
 932 1400 l 1
 1416 1400 l 1
 1416 1348 l 1
 1272 1296 l 1
 758 0 l 1
 738 0 l 1
 224 1296 l 1
 80 1348 l 1
 80 1400 l 1
EndSplineSet
Validated: 1
EndChar

StartChar: W
Encoding: 87 87 54
Width: 2100
VWidth: 2048
Flags: W
HStem: 0 21G<730.068 765.935 1334.07 1369.93> 1380 20G<80 564 684 1168 1536 2020>
LayerCount: 2
Fore
SplineSet
684 1400 m 1
 1168 1400 l 1
 1024 1296 l 1
 1352 312 l 1
 1680 1296 l 1
 1536 1400 l 1
 2020 1400 l 1
 2020 1348 l 1
 1876 1296 l 1
 1362 0 l 1
 1342 0 l 1
 1050 736 l 1
 758 0 l 1
 738 0 l 1
 224 1296 l 1
 80 1348 l 1
 80 1400 l 1
 564 1400 l 1
 420 1296 l 1
 748 312 l 1
 963 957 l 1
 828 1296 l 1
 684 1348 l 1
 684 1400 l 1
EndSplineSet
Validated: 1
EndChar

StartChar: X
Encoding: 88 88 55
Width: 1544
VWidth: 2048
Flags: W
HStem: 0 52<80 102.615 1433.38 1456> 1348 52<208 230.615 1329.38 1352>
LayerCount: 2
Fore
SplineSet
683 809 m 1
 376 1296 l 1
 208 1348 l 1
 208 1400 l 1
 640 1400 l 1
 536 1296 l 1
 762 937 l 1
 984 1296 l 1
 880 1400 l 1
 1352 1400 l 1
 1352 1348 l 1
 1184 1296 l 1
 864 777 l 1
 1288 104 l 1
 1456 52 l 1
 1456 0 l 1
 1024 0 l 1
 1128 104 l 1
 784 649 l 1
 448 104 l 1
 552 0 l 1
 80 0 l 1
 80 52 l 1
 248 104 l 1
 683 809 l 1
EndSplineSet
Validated: 1
EndChar

StartChar: Y
Encoding: 89 89 56
Width: 1344
VWidth: 2048
Flags: W
HStem: 0 52<408 430.615 913.385 936> 1348 52<80 102.615 1241.38 1264>
VStem: 576 192<104 640>
LayerCount: 2
Fore
SplineSet
80 1400 m 1
 512 1400 l 1
 408 1296 l 1
 672 768 l 1
 936 1296 l 1
 832 1400 l 1
 1264 1400 l 1
 1264 1348 l 1
 1096 1296 l 1
 768 640 l 1
 768 104 l 1
 936 52 l 1
 936 0 l 1
 408 0 l 1
 408 52 l 1
 576 104 l 1
 576 640 l 1
 248 1296 l 1
 80 1348 l 1
 80 1400 l 1
EndSplineSet
Validated: 1
EndChar

StartChar: Z
Encoding: 90 90 57
Width: 1320
VWidth: 2048
Flags: W
HStem: 0 104<400 1084> 1296 104<236 920>
LayerCount: 2
Fore
SplineSet
80 52 m 1
 184 104 l 1
 920 1296 l 1
 236 1296 l 1
 132 1088 l 1
 80 1088 l 1
 80 1400 l 1
 1240 1400 l 1
 1240 1348 l 1
 1136 1296 l 1
 400 104 l 1
 1084 104 l 1
 1188 312 l 1
 1240 312 l 1
 1240 0 l 1
 80 0 l 1
 80 52 l 1
EndSplineSet
Validated: 1
EndChar

StartChar: bracketleft
Encoding: 91 91 58
Width: 700
VWidth: 2048
Flags: W
HStem: -172 120<372 660> 1452 120<372 660>
VStem: 192 180<-52 1452>
LayerCount: 2
Fore
SplineSet
192 1572 m 1
 660 1572 l 1
 660 1452 l 1
 372 1452 l 1
 372 -52 l 1
 660 -52 l 1
 660 -172 l 1
 192 -172 l 1
 192 1572 l 1
EndSplineSet
Validated: 1
EndChar

StartChar: backslash
Encoding: 92 92 59
Width: 1208
VWidth: 2048
Flags: W
LayerCount: 2
Fore
SplineSet
1100 -176 m 1
 916 -176 l 1
 40 1576 l 1
 224 1576 l 1
 1100 -176 l 1
EndSplineSet
Validated: 1
EndChar

StartChar: bracketright
Encoding: 93 93 60
Width: 700
VWidth: 2048
Flags: W
HStem: -172 120<40 328> 1452 120<40 328>
VStem: 328 180<-52 1452>
LayerCount: 2
Fore
SplineSet
508 -172 m 1
 40 -172 l 1
 40 -52 l 1
 328 -52 l 1
 328 1452 l 1
 40 1452 l 1
 40 1572 l 1
 508 1572 l 1
 508 -172 l 1
EndSplineSet
Validated: 1
EndChar

StartChar: asciicircum
Encoding: 94 94 61
Width: 1832
VWidth: 2048
Flags: W
HStem: 0 52<200 222.615 705.385 728 1609.38 1632> 492 136<80 368 560 878 1094 1272 1464 1752> 816 136<80 368 560 716 932 1272 1464 1752> 1348 52<200 222.615 1104 1126.62 1609.38 1632>
VStem: 368 192<104 492 628 816 952 1264> 1272 192<136 492 628 816 952 1296>
LayerCount: 2
Fore
SplineSet
368 104 m 1
 368 492 l 1
 80 492 l 1
 80 628 l 1
 368 628 l 1
 368 816 l 1
 80 816 l 1
 80 952 l 1
 368 952 l 1
 368 1296 l 1
 200 1348 l 1
 200 1400 l 1
 640 1400 l 1
 864 952 l 1
 1272 952 l 1
 1272 1296 l 1
 1104 1348 l 1
 1104 1400 l 1
 1632 1400 l 1
 1632 1348 l 1
 1464 1296 l 1
 1464 952 l 1
 1752 952 l 1
 1752 816 l 1
 1464 816 l 1
 1464 628 l 1
 1752 628 l 1
 1752 492 l 1
 1464 492 l 1
 1464 104 l 1
 1632 52 l 1
 1632 0 l 1
 1192 0 l 1
 946 492 l 1
 560 492 l 1
 560 104 l 1
 728 52 l 1
 728 0 l 1
 200 0 l 1
 200 52 l 1
 368 104 l 1
1272 492 m 1
 1094 492 l 1
 1272 136 l 1
 1272 492 l 1
1272 816 m 1
 932 816 l 1
 1026 628 l 1
 1272 628 l 1
 1272 816 l 1
560 952 m 1
 716 952 l 1
 560 1264 l 1
 560 952 l 1
560 628 m 1
 878 628 l 1
 784 816 l 1
 560 816 l 1
 560 628 l 1
EndSplineSet
Validated: 1
EndChar

StartChar: underscore
Encoding: 95 95 62
Width: 1472
VWidth: 2048
Flags: W
HStem: -344 192<-12 1484>
LayerCount: 2
Fore
SplineSet
-12 -152 m 1
 1484 -152 l 1
 1484 -344 l 1
 -12 -344 l 1
 -12 -152 l 1
EndSplineSet
Validated: 1
EndChar

StartChar: grave
Encoding: 96 96 63
Width: 752
VWidth: 2048
Flags: W
LayerCount: 2
Fore
SplineSet
232 1304 m 1
 194.666666667 1357.33333333 200 1401.33333333 248 1436 c 1
 306.666666667 1460 349.333333333 1449.33333333 376 1404 c 1
 548 1060 l 1
 549.333333333 1034.66666667 537.333333333 1022.66666667 512 1024 c 1
 232 1304 l 1
EndSplineSet
Validated: 524321
EndChar

StartChar: a
Encoding: 97 97 64
Width: 920
VWidth: 2048
Flags: W
HStem: 0 104<312.787 516.276> 468 104<303.708 490.368> 808 104<327.222 502.223>
VStem: 80 140<197.482 376.461> 590 192<161.066 387.729 480 708.103>
LayerCount: 2
Fore
SplineSet
96 664 m 1
 112 732 149.666666667 790 209 838 c 0
 268.333333333 886 337.333333333 910.666666667 416 912 c 1
 522.666666667 909.333333333 608.666666667 884.333333333 674 837 c 0
 739.333333333 789.666666667 775.333333333 704.666666667 782 582 c 1
 782 110 l 1
 840 52 l 1
 840 0 l 1
 680 0 l 1
 590 46 l 1
 554 16.6666666667 491.333333333 1.33333333333 402 0 c 0
 290 1.33333333333 209 29.6666666667 159 85 c 0
 109 140.333333333 82.6666666667 206 80 282 c 1
 82.6666666667 378 112 449.666666667 168 497 c 0
 224 544.333333333 292 569.333333333 372 572 c 1
 474.666666667 568 547.333333333 537.333333333 590 480 c 1
 590 582 l 1
 587.333333333 658 572.666666667 714 546 750 c 0
 519.333333333 786 476 805.333333333 416 808 c 1
 373.333333333 806.666666667 335.333333333 794.666666667 302 772 c 0
 268.666666667 749.333333333 247.333333333 713.333333333 238 664 c 1
 96 664 l 1
372 468 m 1
 330.666666667 465.333333333 295.666666667 448 267 416 c 0
 238.333333333 384 222.666666667 340 220 284 c 1
 222.666666667 233.333333333 239 191.333333333 269 158 c 0
 299 124.666666667 343.333333333 106.666666667 402 104 c 1
 456.666666667 106.666666667 501 116.666666667 535 134 c 0
 569 151.333333333 587.333333333 180.666666667 590 222 c 1
 590 333 l 1
 583.333333333 372.333333333 562.333333333 404 527 428 c 0
 491.666666667 452 440 465.333333333 372 468 c 1
EndSplineSet
Validated: 524289
EndChar

StartChar: b
Encoding: 98 98 65
Width: 1216
VWidth: 2048
Flags: W
HStem: 0 104<584.441 806.062> 0 52<80 102.615> 808 104<600.969 800.647> 1348 52<140 192>
VStem: 248 192<206.311 679.917 788 1292> 944 192<313.646 604.672>
LayerCount: 2
Fore
SplineSet
720 808 m 1xbc
 590.666666667 804 497.333333333 750.666666667 440 648 c 1
 440 232 l 1
 496 149.333333333 589.333333333 106.666666667 720 104 c 1
 862.666666667 109.333333333 937.333333333 226.666666667 944 456 c 1
 938.666666667 678.666666667 864 796 720 808 c 1xbc
720 912 m 1
 984 901.333333333 1122.66666667 749.333333333 1136 456 c 1
 1134.66666667 396 1123 333.666666667 1101 269 c 0
 1079 204.333333333 1036.33333333 143.666666667 973 87 c 0
 909.666666667 30.3333333333 825.333333333 1.33333333333 720 0 c 1xbc
 590.666666667 2.66666666667 497.333333333 28 440 76 c 1
 364 0 l 1
 80 0 l 1
 80 52 l 1x7c
 248 104 l 1
 248 1292 l 1
 192 1348 l 1
 140 1348 l 1
 140 1400 l 1
 440 1400 l 1
 440 788 l 1
 494.666666667 865.333333333 588 906.666666667 720 912 c 1
EndSplineSet
Validated: 524289
EndChar

StartChar: c
Encoding: 99 99 66
Width: 976
VWidth: 2048
Flags: W
HStem: 0 104<424.3 637.693> 808 104<424.3 626.119>
VStem: 80 192<304.251 607.749> 642 236<558.341 669.244>
LayerCount: 2
Fore
SplineSet
272 456 m 1
 281.333333333 228 362.666666667 110.666666667 516 104 c 1
 624 108 705.333333333 136 760 188 c 2
 840 268 l 1
 896 212 l 1
 816 132 l 1
 728 48 628 4 516 0 c 1
 401.333333333 2.66666666667 302 38 218 106 c 0
 134 174 88 290.666666667 80 456 c 1
 88 621.333333333 134 738 218 806 c 0
 302 874 401.333333333 909.333333333 516 912 c 1
 644 904 735.333333333 872.333333333 790 817 c 0
 844.666666667 761.666666667 874 701.333333333 878 636 c 1
 875.333333333 558.666666667 839.333333333 518 770 514 c 1
 691.333333333 515.333333333 648.666666667 544.666666667 642 602 c 1
 644.666666667 655.333333333 668 690.666666667 712 708 c 1
 685.333333333 770.666666667 620 804 516 808 c 1
 362.666666667 801.333333333 281.333333333 684 272 456 c 1
EndSplineSet
Validated: 524289
EndChar

StartChar: d
Encoding: 100 100 67
Width: 1216
VWidth: 2048
Flags: W
HStem: 0 104<409.938 631.559> 0 52<1113.38 1136> 808 104<415.353 615.031> 1348 52<668 720>
VStem: 80 192<313.646 604.672> 776 192<206.311 679.917 788 1292>
LayerCount: 2
Fore
SplineSet
496 808 m 1xbc
 352 796 277.333333333 678.666666667 272 456 c 1
 278.666666667 226.666666667 353.333333333 109.333333333 496 104 c 1
 626.666666667 106.666666667 720 149.333333333 776 232 c 1
 776 648 l 1
 718.666666667 750.666666667 625.333333333 804 496 808 c 1xbc
496 912 m 1
 628 906.666666667 721.333333333 865.333333333 776 788 c 1
 776 1292 l 1
 720 1348 l 1
 668 1348 l 1
 668 1400 l 1
 968 1400 l 1
 968 104 l 1xbc
 1136 52 l 1
 1136 0 l 1
 852 0 l 1x7c
 776 76 l 1
 718.666666667 28 625.333333333 2.66666666667 496 0 c 1
 390.666666667 1.33333333333 306.333333333 30.3333333333 243 87 c 0
 179.666666667 143.666666667 137 204.333333333 115 269 c 0
 93 333.666666667 81.3333333333 396 80 456 c 1
 93.3333333333 749.333333333 232 901.333333333 496 912 c 1
EndSplineSet
Validated: 524289
EndChar

StartChar: e
Encoding: 101 101 68
Width: 976
VWidth: 2048
Flags: W
HStem: 0 104<417.439 632.101> 492 100<268 748> 892 20G<458.667 574.667>
VStem: 80 180<333.171 490.846>
LayerCount: 2
Fore
SplineSet
80 484 m 1
 88 630.666666667 134 738 218 806 c 0
 302 874 401.333333333 909.333333333 516 912 c 1
 633.333333333 901.333333333 724 865.333333333 788 804 c 1
 857.333333333 726.666666667 892 622.666666667 892 492 c 1
 260 492 l 1
 262.666666667 378.666666667 284 286 324 214 c 0
 364 142 428 105.333333333 516 104 c 0
 593.333333333 101.333333333 674.666666667 129.333333333 760 188 c 1
 840 268 l 1
 896 212 l 1
 816 132 l 1
 728 49.3333333333 628 5.33333333333 516 0 c 1
 388 8 295.333333333 38.6666666667 238 92 c 0
 180.666666667 145.333333333 140 209.333333333 116 284 c 0
 92 358.666666667 80 425.333333333 80 484 c 1
268 592 m 1
 748 592 l 1
 721.333333333 720 644 792 516 808 c 1
 374.666666667 800 292 728 268 592 c 1
EndSplineSet
Validated: 524321
EndChar

StartChar: f
Encoding: 102 102 69
Width: 1152
VWidth: 2048
Flags: W
HStem: 0 52<192 214.615 697.385 720> 792 120<80 360 552 832> 1380 20G<617.333 798.667>
VStem: 360 192<104 792 912 1180.41> 832 240<1045.45 1172.16>
LayerCount: 2
Fore
SplineSet
552 792 m 1
 552 104 l 1
 720 52 l 1
 720 0 l 1
 192 0 l 1
 192 52 l 1
 360 104 l 1
 360 792 l 1
 80 792 l 1
 80 912 l 1
 360 912 l 1
 360 1096 l 1
 362.666666667 1290.66666667 490.666666667 1392 744 1400 c 1
 853.333333333 1392 935.333333333 1359.33333333 990 1302 c 0
 1044.66666667 1244.66666667 1072 1181.33333333 1072 1112 c 1
 1064 1037.33333333 1025.33333333 998.666666667 956 996 c 1
 878.666666667 998.666666667 837.333333333 1038.66666667 832 1116 c 1
 834.666666667 1164 858.666666667 1192 904 1200 c 1
 864 1250.66666667 810.666666667 1277.33333333 744 1280 c 1
 618.666666667 1264 554.666666667 1202.66666667 552 1096 c 1
 552 912 l 1
 832 912 l 1
 832 792 l 1
 552 792 l 1
EndSplineSet
Validated: 524289
EndChar

StartChar: g
Encoding: 103 103 70
Width: 1324
VWidth: 2048
Flags: W
HStem: -580 120<483.735 833.651> -16 104<560.5 790.109> 200 712<636 788>
VStem: 80 218<-340.874 -149.378> 228 208<498.925 703.564> 236 176<133.248 245.706> 956 172<397.967 589.237> 1064 164<-327.665 -180.219>
LayerCount: 2
Fore
SplineSet
636 912 m 1xe8
 697.333333333 909.333333333 753 902 803 890 c 0
 853 878 902.666666667 853.333333333 952 816 c 1
 1012 756 l 1
 1052 829.333333333 1118.66666667 868 1212 872 c 1
 1244 760 l 1
 1172 756 1124 713.333333333 1100 632 c 1
 1117.33333333 592 1126.66666667 542 1128 482 c 1
 1118.66666667 379.333333333 1083.33333333 308 1022 268 c 0
 960.666666667 228 882.666666667 205.333333333 788 200 c 1
 732 201.333333333 680 207.666666667 632 219 c 0
 584 230.333333333 537.333333333 249.333333333 492 276 c 1
 465.333333333 268 445.333333333 257.333333333 432 244 c 0
 418.666666667 230.666666667 412 214 412 194 c 0xe6
 414.666666667 144.666666667 438.666666667 114.666666667 484 104 c 1
 620 88 l 1
 726.666666667 82.6666666667 814.666666667 72 884 56 c 0
 1014.66666667 24 1104.33333333 -18 1153 -70 c 0
 1201.66666667 -122 1226.66666667 -185.333333333 1228 -260 c 1
 1222.66666667 -361.333333333 1168 -439 1064 -493 c 0
 960 -547 823.333333333 -576 654 -580 c 1
 484.666666667 -576 348 -547 244 -493 c 0
 140 -439 85.3333333333 -361.333333333 80 -260 c 1xf1
 82.6666666667 -189.333333333 104 -124.333333333 144 -65 c 0
 184 -5.66666666667 246.666666667 34.6666666667 332 56 c 1
 300 70.6666666667 276.666666667 90.3333333333 262 115 c 0
 247.333333333 139.666666667 238.666666667 170.666666667 236 208 c 1xe4
 237.333333333 253.333333333 248 288 268 312 c 0
 288 336 314.666666667 352 348 360 c 1
 310.666666667 394.666666667 282 431.333333333 262 470 c 0
 242 508.666666667 230.666666667 560 228 624 c 1
 233.333333333 720 275.333333333 791.666666667 354 839 c 0
 432.666666667 886.333333333 526.666666667 910.666666667 636 912 c 1xe8
572 784 m 0
 526.666666667 770.666666667 493.333333333 751 472 725 c 0
 450.666666667 699 438.666666667 665.333333333 436 624 c 1xea
 437.333333333 566.666666667 445.666666667 521 461 487 c 0
 476.333333333 453 494.666666667 426.666666667 516 408 c 0
 557.333333333 374.666666667 600.333333333 353 645 343 c 0
 689.666666667 333 737.333333333 326.666666667 788 324 c 1
 894.666666667 326.666666667 950.666666667 379.333333333 956 482 c 1
 953.333333333 536.666666667 939.333333333 587.333333333 914 634 c 0
 888.666666667 680.666666667 841.333333333 722.666666667 772 760 c 1
 700 794.666666667 633.333333333 802.666666667 572 784 c 0
500 -16 m 1
 430.666666667 -24 380.333333333 -50.3333333333 349 -95 c 0
 317.666666667 -139.666666667 300.666666667 -194.666666667 298 -260 c 1
 302 -334.666666667 336.666666667 -385.666666667 402 -413 c 0
 467.333333333 -440.333333333 551.333333333 -456 654 -460 c 1
 762 -457.333333333 856.666666667 -439.333333333 938 -406 c 0
 1019.33333333 -372.666666667 1061.33333333 -324 1064 -260 c 1xf1
 1062.66666667 -218.666666667 1049.33333333 -183 1024 -153 c 0
 998.666666667 -123 957.333333333 -96 900 -72 c 0
 812 -37.3333333333 718.666666667 -18.6666666667 620 -16 c 1
 500 -16 l 1
EndSplineSet
Validated: 524321
EndChar

StartChar: h
Encoding: 104 104 71
Width: 1332
VWidth: 2048
Flags: W
HStem: 0 52<80 102.615 1229.38 1252> 808 104<603.338 798.305> 1348 52<140 192>
VStem: 248 192<104 698.066 796 1292> 892 192<104 712.348>
LayerCount: 2
Fore
SplineSet
712 912 m 1
 952 904 1076 812 1084 636 c 1
 1084 104 l 1
 1252 52 l 1
 1252 0 l 1
 788 0 l 1
 892 104 l 1
 892 636 l 1
 881.333333333 745.333333333 821.333333333 802.666666667 712 808 c 1
 609.333333333 802.666666667 518.666666667 760 440 680 c 1
 440 104 l 1
 544 0 l 1
 80 0 l 1
 80 52 l 1
 248 104 l 1
 248 1292 l 1
 192 1348 l 1
 140 1348 l 1
 140 1400 l 1
 440 1400 l 1
 440 796 l 1
 504 870.666666667 594.666666667 909.333333333 712 912 c 1
EndSplineSet
Validated: 524289
EndChar

StartChar: i
Encoding: 105 105 72
Width: 688
VWidth: 2048
Flags: W
HStem: 0 52<80 102.615 585.385 608> 515.625 200<249.646 376.947> 892 20G<237.932 440>
VStem: 213.297 200<551.975 679.275> 248 192<104 662>
LayerCount: 2
Fore
SplineSet
440 912 m 5,12,-1
 440 104 l 5,13,-1
 608 52 l 5,14,-1
 608 0 l 5,15,-1
 80 0 l 5,16,-1
 80 52 l 5,17,-1
 248 104 l 5,18,-1
 248 662 l 5,19,-1
 116 596 l 5,20,-1
 100 618 l 5,21,-1
 248 912 l 5,22,-1
 440 912 l 5,12,-1
EndSplineSet
Refer: 13 46 N 1 0 0 1 29.2969 515.625 0
Validated: 524293
EndChar

StartChar: j
Encoding: 106 106 73
Width: 612
VWidth: 2048
Flags: W
HStem: -488 108<137.975 265.987> 515.625 200<284.803 412.104> 892 20G<309.932 512>
VStem: -72 232<-248.184 -120.01> 248.453 200<551.975 679.275> 320 192<-313.293 662>
LayerCount: 2
Fore
SplineSet
512 912 m 5,12,-1
 512 -204 l 5,13,-1
 504 -484 504 -484 212 -488 c 4,16,-1
 -68 -488 -68 -488 -72 -196 c 4,19,-1
 -72 -84 -72 -84 44 -76 c 5,22,-1
 160 -84 160 -84 160 -196 c 5,25,-1
 156 -252 156 -252 94 -280 c 5,28,-1
 106 -376 106 -376 212 -380 c 5,31,-1
 312 -376 312 -376 320 -204 c 5,34,-1
 320 662 l 5,35,-1
 188 596 l 5,36,-1
 172 618 l 5,37,-1
 320 912 l 5,38,-1
 512 912 l 5,12,-1
EndSplineSet
Refer: 13 46 N 1 0 0 1 64.4531 515.625 0
Validated: 524293
EndChar

StartChar: k
Encoding: 107 107 74
Width: 1328
VWidth: 2048
Flags: W
HStem: 0 52<80 102.615 1225.38 1248> 832 80<1038 1200> 1348 52<136 188>
VStem: 248 192<104 430 590 1288>
LayerCount: 2
Fore
SplineSet
1038 832 m 1
 702 606 l 1
 1080 104 l 1
 1248 52 l 1
 1248 0 l 1
 800 0 l 1
 904 104 l 1
 582 526 l 1
 440 430 l 1
 440 104 l 1
 544 0 l 1
 80 0 l 1
 80 52 l 1
 248 104 l 1
 248 1288 l 1
 188 1348 l 1
 136 1348 l 1
 136 1400 l 1
 440 1400 l 1
 440 590 l 1
 834 854 l 1
 776 912 l 1
 1200 912 l 1
 1200 832 l 1
 1038 832 l 1
EndSplineSet
Validated: 1
EndChar

StartChar: l
Encoding: 108 108 75
Width: 688
VWidth: 2048
Flags: W
HStem: 0 21G<80 608> 1348 52<136 188>
VStem: 248 192<104 1288>
LayerCount: 2
Fore
SplineSet
440 1400 m 1
 440 104 l 1
 608 48 l 1
 608 0 l 1
 80 0 l 1
 80 48 l 1
 248 104 l 1
 248 1288 l 1
 188 1348 l 1
 136 1348 l 1
 136 1400 l 1
 440 1400 l 1
EndSplineSet
Validated: 1
EndChar

StartChar: m
Encoding: 109 109 76
Width: 1976
VWidth: 2048
Flags: W
HStem: 0 52<80 102.615 1873.38 1896> 808 104<603.338 800.391 1248.28 1442.3> 860 50<140 192>
VStem: 248 192<104 698.066 796 804> 892 192<104 676> 1536 192<104 712.348>
CounterMasks: 1 1c
LayerCount: 2
Fore
SplineSet
712 912 m 1xdc
 880 908 993.333333333 857.333333333 1052 760 c 1
 1128 856 1229.33333333 906.666666667 1356 912 c 1
 1596 904 1720 812 1728 636 c 1
 1728 104 l 1
 1896 52 l 1
 1896 0 l 1
 1432 0 l 1
 1536 104 l 1
 1536 636 l 1
 1525.33333333 745.333333333 1465.33333333 802.666666667 1356 808 c 1
 1249.33333333 801.333333333 1157.33333333 757.333333333 1080 676 c 1
 1084 636 l 1
 1084 104 l 1
 1188 0 l 1
 788 0 l 1
 892 104 l 1
 892 636 l 1
 881.333333333 745.333333333 821.333333333 802.666666667 712 808 c 1xdc
 609.333333333 802.666666667 518.666666667 760 440 680 c 1
 440 104 l 1
 544 0 l 1
 80 0 l 1
 80 52 l 1
 248 104 l 1
 248 804 l 1
 192 860 l 1
 140 860 l 1
 140 910 l 1
 440 910 l 1xbc
 440 796 l 1
 504 870.666666667 594.666666667 909.333333333 712 912 c 1xdc
EndSplineSet
Validated: 524289
EndChar

StartChar: n
Encoding: 110 110 77
Width: 1332
VWidth: 2048
Flags: W
HStem: 0 52<80 102.615 1229.38 1252> 808 104<593.985 798.742> 860 50<140 192>
VStem: 248 192<104 678.754 772 804> 892 192<104 713.93>
LayerCount: 2
Fore
SplineSet
712 912 m 1xd8
 954.666666667 908 1078.66666667 816 1084 636 c 1
 1084 104 l 1
 1252 52 l 1
 1252 0 l 1
 788 0 l 1
 892 104 l 1
 892 636 l 1
 881.333333333 745.333333333 821.333333333 802.666666667 712 808 c 1xd8
 644 806.666666667 586.333333333 789.666666667 539 757 c 0
 491.666666667 724.333333333 458.666666667 684 440 636 c 1
 440 104 l 1
 544 0 l 1
 80 0 l 1
 80 52 l 1
 248 104 l 1
 248 804 l 1
 192 860 l 1
 140 860 l 1
 140 910 l 1
 440 910 l 1xb8
 440 772 l 1
 462.666666667 813.333333333 496.333333333 846.333333333 541 871 c 0
 585.666666667 895.666666667 642.666666667 909.333333333 712 912 c 1xd8
EndSplineSet
Validated: 524289
EndChar

StartChar: o
Encoding: 111 111 78
Width: 1072
VWidth: 2048
Flags: W
HStem: 0 104<433.371 638.629> 808 104<433.371 638.629>
VStem: 80 192<300.213 611.787> 800 192<300.213 611.787>
LayerCount: 2
Fore
SplineSet
536 912 m 1
 834.666666667 906.666666667 986.666666667 754.666666667 992 456 c 1
 986.666666667 157.333333333 834.666666667 5.33333333333 536 0 c 1
 237.333333333 5.33333333333 85.3333333333 157.333333333 80 456 c 1
 85.3333333333 754.666666667 237.333333333 906.666666667 536 912 c 1
536 808 m 1
 365.333333333 802.666666667 277.333333333 685.333333333 272 456 c 1
 277.333333333 226.666666667 365.333333333 109.333333333 536 104 c 1
 706.666666667 109.333333333 794.666666667 226.666666667 800 456 c 1
 794.666666667 685.333333333 706.666666667 802.666666667 536 808 c 1
EndSplineSet
Validated: 524289
EndChar

StartChar: p
Encoding: 112 112 79
Width: 1216
VWidth: 2048
Flags: W
HStem: -488 52<140 192 496 548> 0 104<600.969 800.647> 808 104<584.441 806.062> 860 50<80 102.615>
VStem: 248 192<-380 124 232.083 705.689> 944 192<307.328 598.354>
LayerCount: 2
Fore
SplineSet
720 104 m 1xec
 864 116 938.666666667 233.333333333 944 456 c 1
 937.333333333 685.333333333 862.666666667 802.666666667 720 808 c 1
 589.333333333 805.333333333 496 762.666666667 440 680 c 1
 440 264 l 1
 497.333333333 161.333333333 590.666666667 108 720 104 c 1xec
720 0 m 1
 588 5.33333333333 494.666666667 46.6666666667 440 124 c 1
 440 -380 l 1
 496 -436 l 1
 548 -436 l 1
 548 -488 l 1
 140 -488 l 1
 140 -436 l 1
 192 -436 l 1
 248 -380 l 1
 248 808 l 1xec
 80 860 l 1
 80 910 l 1
 366 910 l 1xdc
 440 836 l 1
 497.333333333 884 590.666666667 909.333333333 720 912 c 1
 825.333333333 910.666666667 909.666666667 881.666666667 973 825 c 0
 1036.33333333 768.333333333 1079 707.666666667 1101 643 c 0
 1123 578.333333333 1134.66666667 516 1136 456 c 1
 1122.66666667 162.666666667 984 10.6666666667 720 0 c 1
EndSplineSet
Validated: 524289
EndChar

StartChar: q
Encoding: 113 113 80
Width: 1048
VWidth: 2048
Flags: W
HStem: -488 52<668 720 1024 1076> 0 104<415.353 615.031> 808 104<409.938 631.559>
VStem: 80 192<307.328 598.354> 776 192<-380 124 232.083 705.689>
LayerCount: 2
Fore
SplineSet
496 104 m 1
 625.333333333 108 718.666666667 161.333333333 776 264 c 1
 776 680 l 1
 720 762.666666667 626.666666667 805.333333333 496 808 c 1
 353.333333333 802.666666667 278.666666667 685.333333333 272 456 c 1
 277.333333333 233.333333333 352 116 496 104 c 1
496 0 m 1
 232 10.6666666667 93.3333333333 162.666666667 80 456 c 1
 81.3333333333 516 93 578.333333333 115 643 c 0
 137 707.666666667 179.666666667 768.333333333 243 825 c 0
 306.333333333 881.666666667 390.666666667 910.666666667 496 912 c 1
 625.333333333 909.333333333 718.666666667 884 776 836 c 1
 850 910 l 1
 968 910 l 1
 968 -380 l 1
 1024 -436 l 1
 1076 -436 l 1
 1076 -488 l 1
 668 -488 l 1
 668 -436 l 1
 720 -436 l 1
 776 -380 l 1
 776 124 l 1
 721.333333333 46.6666666667 628 5.33333333333 496 0 c 1
EndSplineSet
Validated: 524289
EndChar

StartChar: r
Encoding: 114 114 81
Width: 1100
VWidth: 2048
Flags: W
HStem: 0 52<140 192 496 548> 860 50<80 102.615>
VStem: 248 192<108 712.463 794 808>
LayerCount: 2
Fore
SplineSet
248 808 m 1
 80 860 l 1
 80 910 l 1
 366 910 l 1
 440 836 l 1
 440 794 l 1
 490.666666667 826 555 853.333333333 633 876 c 0
 711 898.666666667 784 910.666666667 852 912 c 1
 974.666666667 906.666666667 1037.33333333 866.666666667 1040 792 c 1
 1034.66666667 701.333333333 974.666666667 653.333333333 860 648 c 1
 781.333333333 652 730.666666667 702 708 798 c 1
 678.666666667 798 638 789.333333333 586 772 c 0
 534 754.666666667 485.333333333 730 440 698 c 1
 440 108 l 1
 496 52 l 1
 548 52 l 1
 548 0 l 1
 140 0 l 1
 140 52 l 1
 192 52 l 1
 248 108 l 1
 248 808 l 1
EndSplineSet
Validated: 524289
EndChar

StartChar: s
Encoding: 115 115 82
Width: 896
VWidth: 2048
Flags: W
HStem: 0 104<280.594 549.027> 808 104<275.648 555.471>
VStem: 80 136<667.441 762.63> 80 80<186.459 300> 640 80<672 752.8> 646 170<169.418 271.334>
LayerCount: 2
Fore
SplineSet
80 300 m 1xd4
 160 300 l 1
 160 236 l 1
 165.333333333 197.333333333 192 166 240 142 c 0
 288 118 345.333333333 105.333333333 412 104 c 1
 565.333333333 113.333333333 643.333333333 152 646 220 c 0xd4
 644.666666667 237.333333333 637.333333333 254.666666667 624 272 c 0
 576 339.333333333 443.666666667 412.666666667 227 492 c 1
 129.666666667 530.666666667 80.6666666667 608 80 724 c 1
 86 843.333333333 196.666666667 906 412 912 c 1
 522.666666667 909.333333333 598.666666667 885.333333333 640 840 c 1
 676 912 l 1
 720 868 l 1
 720 672 l 1
 640 672 l 1
 640 730 l 1
 608 778 532 804 412 808 c 1
 338 806 286.833333333 796.333333333 258.5 779 c 0
 230.166666667 761.666666667 216 743.333333333 216 724 c 0xe8
 216.666666667 698.666666667 224.333333333 679.333333333 239 666 c 0
 257.666666667 646 320.5 618.666666667 427.5 584 c 0
 534.5 549.333333333 629.333333333 500 712 436 c 1
 780 378 814.666666667 306 816 220 c 1
 813.333333333 142.666666667 782.666666667 87.3333333333 724 54 c 0
 665.333333333 20.6666666667 561.333333333 2.66666666667 412 0 c 1
 305.333333333 5.33333333333 221.333333333 29.3333333333 160 72 c 1
 124 0 l 1
 80 44 l 1
 80 300 l 1xd4
EndSplineSet
Validated: 524289
EndChar

StartChar: t
Encoding: 116 116 83
Width: 980
VWidth: 2048
Flags: W
HStem: 0 104<599.767 760.67> 792 120<80 360 552 900> 1144 52<240 267.323>
VStem: 360 192<146.428 792 912 1076>
LayerCount: 2
Fore
SplineSet
552 1188 m 1
 552 912 l 1
 900 912 l 1
 900 792 l 1
 552 792 l 1
 552 208 l 1
 554.666666667 144 595.333333333 109.333333333 674 104 c 1
 752.666666667 106.666666667 808.666666667 143.333333333 842 214 c 1
 876.666666667 220.666666667 896 201.333333333 900 156 c 1
 854.666666667 57.3333333333 779.333333333 5.33333333333 674 0 c 1
 471.333333333 5.33333333333 366.666666667 74.6666666667 360 208 c 1
 360 792 l 1
 80 792 l 1
 80 912 l 1
 360 912 l 1
 360 1076 l 1
 292 1144 l 1
 240 1144 l 1
 240 1196 l 1
 482 1258 l 1
 552 1188 l 1
EndSplineSet
Validated: 524321
EndChar

StartChar: u
Encoding: 117 117 84
Width: 1212
VWidth: 2048
Flags: W
HStem: 0 104<473.695 668.662> 0 52<1080 1132> 860 52<80 136 1076 1132>
VStem: 188 192<199.652 808> 832 192<108 116 213.934 808>
LayerCount: 2
Fore
SplineSet
560 0 m 1xb8
 320 8 196 100 188 276 c 1
 188 808 l 1
 136 860 l 1
 80 860 l 1
 80 912 l 1
 484 912 l 1
 380 808 l 1
 380 276 l 1
 390.666666667 166.666666667 450.666666667 109.333333333 560 104 c 1xb8
 662.666666667 109.333333333 753.333333333 152 832 232 c 1
 832 808 l 1
 728 912 l 1
 1132 912 l 1
 1132 860 l 1
 1076 860 l 1
 1024 808 l 1
 1024 108 l 1
 1080 52 l 1
 1132 52 l 1
 1132 0 l 1
 832 0 l 1x78
 832 116 l 1
 768 41.3333333333 677.333333333 2.66666666667 560 0 c 1xb8
EndSplineSet
Validated: 524289
EndChar

StartChar: v
Encoding: 118 118 85
Width: 1212
VWidth: 2048
Flags: W
HStem: 0 21G<592 620> 860 52<80 146 1066 1132>
LayerCount: 2
Fore
SplineSet
610 0 m 1
 602 0 l 1
 198 808 l 1
 146 860 l 1
 80 860 l 1
 80 912 l 1
 480 912 l 1
 376 808 l 1
 606 170 l 1
 836 808 l 1
 732 912 l 1
 1132 912 l 1
 1132 860 l 1
 1066 860 l 1
 1014 808 l 1
 610 0 l 1
EndSplineSet
Validated: 1
EndChar

StartChar: w
Encoding: 119 119 86
Width: 1860
VWidth: 2048
Flags: W
HStem: 0 21G<592 620.031 1239.97 1268> 860 52<80 146 1714 1780>
LayerCount: 2
Fore
SplineSet
602 0 m 1
 198 808 l 1
 146 860 l 1
 80 860 l 1
 80 912 l 1
 480 912 l 1
 376 808 l 1
 606 170 l 1
 836 808 l 1
 732 912 l 1
 1128 912 l 1
 1024 808 l 1
 1254 170 l 1
 1484 808 l 1
 1380 912 l 1
 1780 912 l 1
 1780 860 l 1
 1714 860 l 1
 1662 808 l 1
 1258 0 l 1
 1250 0 l 1
 930 638 l 1
 610 0 l 1
 602 0 l 1
EndSplineSet
Validated: 1
EndChar

StartChar: x
Encoding: 120 120 87
Width: 1208
VWidth: 2048
Flags: W
HStem: 0 52<80 132 1076 1128> 860 52<80 132 1076 1128>
LayerCount: 2
Fore
SplineSet
504 456 m 1
 188 804 l 1
 132 860 l 1
 80 860 l 1
 80 912 l 1
 480 912 l 1
 376 808 l 1
 604 556 l 1
 832 808 l 1
 728 912 l 1
 1128 912 l 1
 1128 860 l 1
 1076 860 l 1
 1020 804 l 1
 704 456 l 1
 1020 108 l 1
 1076 52 l 1
 1128 52 l 1
 1128 0 l 1
 728 0 l 1
 832 104 l 1
 604 356 l 1
 376 104 l 1
 480 0 l 1
 80 0 l 1
 80 52 l 1
 132 52 l 1
 188 108 l 1
 504 456 l 1
EndSplineSet
Validated: 1
EndChar

StartChar: y
Encoding: 121 121 88
Width: 1384
VWidth: 2048
Flags: W
HStem: -488 104<308.551 469.666> 860 52<80 102.615 1281.38 1304>
VStem: 128 168<-367.004 -228.074>
LayerCount: 2
Fore
SplineSet
80 912 m 1
 528 912 l 1
 424 808 l 1
 744 168 l 1
 1016 808 l 1
 912 912 l 1
 1304 912 l 1
 1304 860 l 1
 1136 808 l 1
 676 -272 l 2
 614.666666667 -410.666666667 516 -482.666666667 380 -488 c 1
 217.333333333 -485.333333333 133.333333333 -420 128 -292 c 1
 130.666666667 -232 158.666666667 -200 212 -196 c 1
 264 -202.666666667 292 -234.666666667 296 -292 c 1
 296 -352 l 1
 317.333333333 -373.333333333 345.333333333 -384 380 -384 c 0
 460 -381.333333333 518.666666667 -344 556 -272 c 1
 664 -20 l 1
 248 808 l 1
 80 860 l 1
 80 912 l 1
EndSplineSet
Validated: 524289
EndChar

StartChar: z
Encoding: 122 122 89
Width: 932
VWidth: 2048
Flags: W
HStem: 0 104<364 752> 808 104<188 568>
VStem: 80 52<700 752> 800 52<160 212>
LayerCount: 2
Fore
SplineSet
80 700 m 1
 80 912 l 1
 852 912 l 1
 364 104 l 1
 752 104 l 1
 800 160 l 1
 800 212 l 1
 852 212 l 1
 852 0 l 1
 80 0 l 1
 568 808 l 1
 188 808 l 1
 132 752 l 1
 132 700 l 1
 80 700 l 1
EndSplineSet
Validated: 1
EndChar

StartChar: braceleft
Encoding: 123 123 90
Width: 676
VWidth: 2048
Flags: W
HStem: -172 140<473.685 676> 1432 140<473.685 676>
VStem: 256 124<77.0117 274.963 1125.04 1322.99>
LayerCount: 2
Fore
SplineSet
676 1572 m 1
 676 1432 l 1
 568 1432 l 2
 456 1432 393.333333333 1368 380 1240 c 1
 377.333333333 1157.33333333 409.333333333 1082 476 1014 c 0
 542.666666667 946 572 890.666666667 564 848 c 1
 561.333333333 816 548 789.333333333 524 768 c 2
 440 700 l 1
 524 632 l 2
 548 610.666666667 561.333333333 584 564 552 c 1
 572 509.333333333 542.666666667 454 476 386 c 0
 409.333333333 318 377.333333333 242.666666667 380 160 c 1
 393.333333333 32 456 -32 568 -32 c 2
 676 -32 l 1
 676 -172 l 1
 548 -172 l 1
 377.333333333 -140 280 -29.3333333333 256 160 c 1
 256 242.666666667 278 312.666666667 322 370 c 0
 366 427.333333333 385.333333333 488 380 552 c 1
 348 600 297.333333333 634.666666667 228 656 c 1
 140 700 l 1
 228 744 l 1
 297.333333333 765.333333333 348 800 380 848 c 1
 385.333333333 912 366 972.666666667 322 1030 c 0
 278 1087.33333333 256 1157.33333333 256 1240 c 1
 280 1429.33333333 377.333333333 1540 548 1572 c 1
 676 1572 l 1
EndSplineSet
Validated: 524321
EndChar

StartChar: bar
Encoding: 124 124 91
Width: 464
VWidth: 2048
Flags: W
HStem: 0 21G<172 292> 1380 20G<172 292>
VStem: 172 120<0 1400>
LayerCount: 2
Fore
SplineSet
172 1400 m 1
 292 1400 l 1
 292 0 l 1
 172 0 l 1
 172 1400 l 1
EndSplineSet
Validated: 1
EndChar

StartChar: braceright
Encoding: 125 125 92
Width: 676
VWidth: 2048
Flags: W
HStem: -172 140<0 202.315> 1432 140<0 202.315>
VStem: 296 124<77.0117 274.963 1125.04 1322.99>
LayerCount: 2
Fore
SplineSet
0 -172 m 1
 0 -32 l 1
 108 -32 l 2
 220 -32 282.666666667 32 296 160 c 1
 298.666666667 242.666666667 266.666666667 318 200 386 c 0
 133.333333333 454 104 509.333333333 112 552 c 1
 114.666666667 584 128 610.666666667 152 632 c 2
 236 700 l 1
 152 768 l 2
 128 789.333333333 114.666666667 816 112 848 c 1
 104 890.666666667 133.333333333 946 200 1014 c 0
 266.666666667 1082 298.666666667 1157.33333333 296 1240 c 1
 282.666666667 1368 220 1432 108 1432 c 2
 0 1432 l 1
 0 1572 l 1
 128 1572 l 1
 298.666666667 1540 396 1429.33333333 420 1240 c 1
 420 1157.33333333 398 1087.33333333 354 1030 c 0
 310 972.666666667 290.666666667 912 296 848 c 1
 328 800 378.666666667 765.333333333 448 744 c 1
 536 700 l 1
 448 656 l 1
 378.666666667 634.666666667 328 600 296 552 c 1
 290.666666667 488 310 427.333333333 354 370 c 0
 398 312.666666667 420 242.666666667 420 160 c 1
 396 -29.3333333333 298.666666667 -140 128 -172 c 1
 0 -172 l 1
EndSplineSet
Validated: 524321
EndChar

StartChar: asciitilde
Encoding: 126 126 93
Width: 904
VWidth: 2048
Flags: W
HStem: 1048 144<497.478 705.687> 1136 144<198.313 406.522>
LayerCount: 2
Fore
SplineSet
824 1304 m 1x80
 818.666666667 1136 746.666666667 1050.66666667 608 1048 c 0x80
 554.666666667 1048 502.666666667 1062.66666667 452 1092 c 0
 401.333333333 1121.33333333 349.333333333 1136 296 1136 c 0
 210.666666667 1136 148 1098.66666667 108 1024 c 1
 80 1024 l 1
 85.3333333333 1192 157.333333333 1277.33333333 296 1280 c 0x40
 349.333333333 1280 401.333333333 1265.33333333 452 1236 c 0
 502.666666667 1206.66666667 554.666666667 1192 608 1192 c 0
 693.333333333 1192 756 1229.33333333 796 1304 c 1
 824 1304 l 1x80
EndSplineSet
Validated: 524289
EndChar

StartChar: exclamdown
Encoding: 161 161 95
Width: 1200
VWidth: 2048
Flags: W
HStem: 0 52<80 102.615> 0 104<440 968> 648 104<440 860> 1296 104<440 968> 1348 52<80 102.615>
VStem: 248 192<104 648 752 1296>
LayerCount: 2
Fore
SplineSet
684 1708 m 5,24,-1
 348 1540 l 5,25,-1
 340 1548 l 5,26,-1
 684 1892 l 5,27,-1
 1028 1548 l 5,28,-1
 1020 1540 l 5,29,-1
 684 1708 l 5,24,-1
EndSplineSet
Refer: 36 69 N 1 0 0 1 0 0 0
Validated: 1
EndChar

StartChar: cent
Encoding: 162 162 96
Width: 972
VWidth: 2048
Flags: W
HStem: 0 104<437.359 666.932> 805 100<635 688.929> 812 112<415.768 500>
VStem: 80 180<333.716 618.223> 686 162<586.113 706.664>
LayerCount: 2
Fore
SplineSet
684 1362 m 1xb8
 788 1362 l 1
 635 905 l 1
 723.666666667 881.666666667 782.666666667 841.333333333 812 784 c 0
 834.666666667 745.333333333 846.666666667 698.666666667 848 644 c 1
 842.666666667 589.333333333 815.333333333 561.333333333 766 560 c 1
 714 564 687.333333333 592 686 644 c 0
 687.333333333 694.666666667 713.333333333 726 764 738 c 1
 723.333333333 774.666666667 669.333333333 797 602 805 c 1xd8
 384 155 l 1
 422.666666667 126.333333333 474 109.333333333 538 104 c 1
 592.666666667 105.333333333 642.333333333 112.666666667 687 126 c 0
 731.666666667 139.333333333 793.333333333 176 872 236 c 1
 885.333333333 241.333333333 891.333333333 236 890 220 c 0
 878 170.666666667 840.333333333 122.666666667 777 76 c 0
 713.666666667 29.3333333333 634 4 538 0 c 1
 460 2.66666666667 395.666666667 15.6666666667 345 39 c 1
 204 -382 l 1
 100 -382 l 1
 258 92 l 1
 142.666666667 184 83.3333333333 317.333333333 80 492 c 1
 86.6666666667 630.666666667 131 737.666666667 213 813 c 0
 295 888.333333333 390.666666667 925.333333333 500 924 c 0
 517.333333333 923.333333333 529.666666667 922.333333333 537 921 c 1
 684 1362 l 1xb8
500 812 m 1xb8
 437.333333333 809.333333333 384 783.666666667 340 735 c 0
 296 686.333333333 269.333333333 605.333333333 260 492 c 1
 262.666666667 388 279.666666667 306.333333333 311 247 c 1
 500 812 l 1xb8
EndSplineSet
Validated: 524321
EndChar

StartChar: sterling
Encoding: 163 163 97
Width: 1660
VWidth: 2048
Flags: W
HStem: 784 120<228 548 732 1052>
VStem: 548 184<544 784 904 1148.68> 1428 152<154.951 304>
LayerCount: 2
Fore
SplineSet
284 376 m 1
 252 324 252 271.333333333 284 218 c 1
 302.666666667 195.333333333 329 182.666666667 363 180 c 0
 437 169.333333333 488 242.666666667 516 400 c 1
 430.666666667 453.333333333 353.333333333 445.333333333 284 376 c 1
548 1064 m 1
 564 1288 662.666666667 1410.66666667 844 1432 c 1
 1014.66666667 1448 1132 1389.33333333 1196 1256 c 1
 1225.33333333 1176 1214 1112 1162 1064 c 1
 1118 1064 l 1
 1124.66666667 1190.66666667 1065.33333333 1260 940 1272 c 1
 792 1269.33333333 722.666666667 1170.66666667 732 976 c 1
 732 904 l 1
 1052 904 l 1
 1052 784 l 1
 732 784 l 1
 732 432 l 1
 972 256 l 1
 1100 144 1198.66666667 90.6666666667 1268 96 c 1
 1386.66666667 84 1440 153.333333333 1428 304 c 1
 1580 304 l 1
 1580 200 l 1
 1564 56 1481.33333333 -26.6666666667 1332 -48 c 0
 1193.33333333 -69.3333333333 1046.66666667 -10.6666666667 892 128 c 1
 692 272 l 1
 648 80 545.666666667 -10.6666666667 385 0 c 1
 275 1.33333333333 189.333333333 44 128 128 c 0
 96 174.666666667 80 232.666666667 80 302 c 0
 80 371.333333333 106 435.333333333 158 494 c 1
 274 591.333333333 404 608 548 544 c 1
 548 784 l 1
 228 784 l 1
 228 904 l 1
 548 904 l 1
 548 1064 l 1
EndSplineSet
Validated: 524321
EndChar

StartChar: currency
Encoding: 164 164 98
Width: 1200
VWidth: 2048
Flags: W
HStem: 0 52<80 102.615> 0 104<440 968> 648 104<440 860> 1296 104<440 968> 1348 52<80 102.615>
VStem: 248 192<104 648 752 1296> 620 160<-332 8>
LayerCount: 2
Fore
SplineSet
620 8 m 5,30,-1
 780 8 l 5,31,-1
 780 -332 l 5,32,-1
 620 -332 l 5,33,-1
 620 8 l 5,30,-1
EndSplineSet
Refer: 132 198 N 1 0 0 1 0 0 0
Validated: 5
EndChar

StartChar: yen
Encoding: 165 165 99
Width: 1236
VWidth: 2048
Flags: W
HStem: 0 52<394 416.615 867.385 890> 388 140<142 562 722 1142> 668 140<142 562 722 1142> 1348 52<80 102.615 1181.38 1204>
VStem: 562 160<104 388 528 668>
LayerCount: 2
Fore
SplineSet
80 1400 m 1
 522 1400 l 1
 418 1296 l 1
 642 948 l 1
 866 1296 l 1
 762 1400 l 1
 1204 1400 l 1
 1204 1348 l 1
 1036 1296 l 1
 722 808 l 1
 1142 808 l 1
 1142 668 l 1
 722 668 l 1
 722 528 l 1
 1142 528 l 1
 1142 388 l 1
 722 388 l 1
 722 104 l 1
 890 52 l 1
 890 0 l 1
 394 0 l 1
 394 52 l 1
 562 104 l 1
 562 388 l 1
 142 388 l 1
 142 528 l 1
 562 528 l 1
 562 668 l 1
 142 668 l 1
 142 808 l 1
 562 808 l 1
 248 1296 l 1
 80 1348 l 1
 80 1400 l 1
EndSplineSet
Validated: 1
EndChar

StartChar: brokenbar
Encoding: 166 166 100
Width: 1200
VWidth: 2048
Flags: W
HStem: 0 52<80 102.615> 0 104<440 968> 648 104<440 860> 1296 104<440 968> 1348 52<80 102.615>
VStem: 248 192<104 648 752 1296> 620 160<-332 8>
LayerCount: 2
Fore
SplineSet
620 8 m 5,39,-1
 780 8 l 5,40,-1
 780 -332 l 5,41,-1
 620 -332 l 5,42,-1
 620 8 l 5,39,-1
EndSplineSet
Refer: 131 197 N 1 0 0 1 0 0 0
Validated: 5
EndChar

StartChar: section
Encoding: 167 167 101
Width: 1200
VWidth: 2048
Flags: W
HStem: 0 52<80 102.615> 0 104<440 968> 648 104<440 860> 1296 104<440 968> 1348 52<80 102.615>
VStem: 248 192<104 648 752 1296> 620 160<-332 8>
LayerCount: 2
Fore
SplineSet
620 8 m 5,30,-1
 780 8 l 5,31,-1
 780 -332 l 5,32,-1
 620 -332 l 5,33,-1
 620 8 l 5,30,-1
EndSplineSet
Refer: 95 161 N 1 0 0 1 0 0 0
Validated: 5
EndChar

StartChar: copyright
Encoding: 169 169 103
Width: 1676
VWidth: 2048
Flags: W
HStem: 240 104<711.858 949.561> 1048 104<735.945 948.969>
VStem: 408 152<534.423 849.788> 1088 49<864 914.898>
LayerCount: 2
Fore
SplineSet
840 1152 m 5,0,-1
 962 1148 962 1148 1034 1082 c 5,3,-1
 1092 1140 l 5,4,-1
 1137 1005 l 5,5,-1
 1137 864 l 5,6,-1
 1088 864 l 5,7,-1
 1036 1040 1036 1040 840 1048 c 5,10,-1
 564 1036 564 1036 560 696 c 5,13,-1
 564 348 564 348 816 344 c 5,16,-1
 1044 348 1044 348 1120 516 c 5,19,-1
 1165 479 l 5,20,-1
 1096 248 1096 248 816 240 c 5,23,-1
 420 252 420 252 408 696 c 5,26,-1
 412 1136 412 1136 840 1152 c 5,0,-1
775 1449 m 5,29,-1
 894 1454 894 1454 985 1438 c 5,32,-1
 1516 1302 1516 1302 1596 759 c 5,35,-1
 1601 640 1601 640 1584 549 c 5,38,-1
 1449 18 1449 18 905 -62 c 5,41,-1
 787 -67 787 -67 696 -50 c 5,44,-1
 164 85 164 85 85 629 c 5,47,-1
 80 747 80 747 96 838 c 5,50,-1
 232 1370 232 1370 775 1449 c 5,29,-1
898 1332 m 5,53,-1
 623 1353 623 1353 408 1166 c 5,56,-1
 244 1008 244 1008 204 753 c 5,59,-1
 181 476 181 476 368 261 c 5,62,-1
 526 97 526 97 781 57 c 5,65,-1
 1058 34 1058 34 1273 221 c 5,68,-1
 1437 380 1437 380 1477 634 c 5,71,-1
 1500 911 1500 911 1313 1126 c 5,74,-1
 1154 1290 1154 1290 898 1332 c 5,53,-1
EndSplineSet
Validated: 33
EndChar

StartChar: guillemotleft
Encoding: 171 171 105
Width: 1872
VWidth: 2048
Flags: W
HStem: 0 52<80 102.615 585.385 608 1264 1286.62 1769.38 1792> 1348 52<80 102.615 1769.38 1792>
VStem: 248 192<104 1296> 1432 192<104 1296>
LayerCount: 2
Fore
SplineSet
1214 1784 m 5,25,-1
 934 1504 l 5,26,-1
 896 1502 896 1502 898 1540 c 5,29,-1
 1070 1884 l 5,30,-1
 1110 1952 1110 1952 1198 1916 c 5,33,-1
 1270 1864 1270 1864 1214 1784 c 5,25,-1
EndSplineSet
Refer: 44 77 N 1 0 0 1 0 0 0
Validated: 33
EndChar

StartChar: logicalnot
Encoding: 172 172 106
Width: 1424
VWidth: 2048
Flags: W
HStem: 0 104<580.406 843.594> 1296 104<580.406 843.594>
VStem: 80 192<500.17 899.83> 1152 192<500.17 899.83>
LayerCount: 2
Fore
SplineSet
712 1724 m 5,24,-1
 1048 1892 l 5,25,-1
 1056 1884 l 5,26,-1
 712 1540 l 5,27,-1
 368 1884 l 5,28,-1
 376 1892 l 5,29,-1
 712 1724 l 5,24,-1
EndSplineSet
Refer: 46 79 N 1 0 0 1 0 0 0
Validated: 524289
EndChar

StartChar: uni00AD
Encoding: 173 173 107
Width: 1424
VWidth: 2048
Flags: W
HStem: 0 104<580.406 843.594> 1296 104<580.406 843.594>
VStem: 80 192<500.17 899.83> 1152 192<500.17 899.83>
LayerCount: 2
Fore
SplineSet
752 1560 m 5,24,-1
 448 1752 448 1752 296 1544 c 5,27,-1
 312 1704 312 1704 440 1772 c 4,30,-1
 568 1840 568 1840 784 1724 c 4,33,-1
 1000 1608 1000 1608 1120 1800 c 5,36,-1
 1088 1456 1088 1456 752 1560 c 5,24,-1
EndSplineSet
Refer: 46 79 N 1 0 0 1 0 0 0
Validated: 524321
EndChar

StartChar: registered
Encoding: 174 174 108
Width: 1676
VWidth: 2048
Flags: W
HStem: 672 100<720 840> 1052 104<720 925.25>
VStem: 560 160<348 672 772 1052> 984 160<841.981 998.303>
LayerCount: 2
Fore
SplineSet
720 1052 m 5,0,-1
 720 772 l 5,1,-1
 856 772 l 5,2,-1
 968 788 968 788 984 912 c 5,5,-1
 984 1044 984 1044 856 1052 c 5,8,-1
 720 1052 l 5,0,-1
720 672 m 5,9,-1
 720 348 l 5,10,-1
 848 296 l 5,11,-1
 848 244 l 5,12,-1
 432 244 l 5,13,-1
 432 296 l 5,14,-1
 560 348 l 5,15,-1
 560 1052 l 5,16,-1
 432 1104 l 5,17,-1
 432 1156 l 5,18,-1
 860 1156 l 5,19,-1
 1138 1146 1138 1146 1144 912 c 5,22,-1
 1128 768 1128 768 1000 712 c 5,25,-1
 1184 348 l 5,26,-1
 1268 296 l 5,27,-1
 1268 244 l 5,28,-1
 976 244 l 5,29,-1
 1028 296 l 5,30,-1
 840 672 l 5,31,-1
 720 672 l 5,9,-1
775 1449 m 5,32,-1
 894 1454 894 1454 985 1438 c 5,35,-1
 1516 1302 1516 1302 1596 759 c 5,38,-1
 1601 640 1601 640 1584 549 c 5,41,-1
 1449 18 1449 18 905 -62 c 5,44,-1
 787 -67 787 -67 696 -50 c 5,47,-1
 164 85 164 85 85 629 c 5,50,-1
 80 747 80 747 96 838 c 5,53,-1
 232 1370 232 1370 775 1449 c 5,32,-1
898 1332 m 5,56,-1
 623 1353 623 1353 408 1166 c 5,59,-1
 244 1008 244 1008 204 753 c 5,62,-1
 181 476 181 476 368 261 c 5,65,-1
 526 97 526 97 781 57 c 5,68,-1
 1058 34 1058 34 1273 221 c 5,71,-1
 1437 380 1437 380 1477 634 c 5,74,-1
 1500 911 1500 911 1313 1126 c 5,77,-1
 1154 1290 1154 1290 898 1332 c 5,56,-1
EndSplineSet
Validated: 33
EndChar

StartChar: macron
Encoding: 175 175 109
Width: 1424
VWidth: 2048
Flags: W
HStem: 0 104<580.406 843.594> 1296 104<580.406 843.594>
VStem: 80 192<500.17 899.83> 1152 192<500.17 899.83>
LayerCount: 2
Fore
SplineSet
712 1708 m 5,24,-1
 376 1540 l 5,25,-1
 368 1548 l 5,26,-1
 712 1892 l 5,27,-1
 1056 1548 l 5,28,-1
 1048 1540 l 5,29,-1
 712 1708 l 5,24,-1
EndSplineSet
Refer: 46 79 N 1 0 0 1 0 0 0
Validated: 524289
EndChar

StartChar: degree
Encoding: 176 176 110
Width: 1424
VWidth: 2048
Flags: W
HStem: 0 104<580.406 843.594> 1296 104<580.406 843.594>
VStem: 80 192<500.17 899.83> 632 160<-332 8> 1152 192<500.17 899.83>
CounterMasks: 1 38
LayerCount: 2
Fore
SplineSet
632 8 m 5,30,-1
 792 8 l 5,31,-1
 792 -332 l 5,32,-1
 632 -332 l 5,33,-1
 632 8 l 5,30,-1
EndSplineSet
Refer: 106 172 N 1 0 0 1 0 0 0
Validated: 524293
EndChar

StartChar: plusminus
Encoding: 177 177 111
Width: 1424
VWidth: 2048
Flags: W
HStem: 0 104<580.406 843.594> 1296 104<580.406 843.594>
VStem: 80 192<500.17 899.83> 632 160<-332 8> 1152 192<500.17 899.83>
CounterMasks: 1 38
LayerCount: 2
Fore
SplineSet
632 8 m 5,39,-1
 792 8 l 5,40,-1
 792 -332 l 5,41,-1
 632 -332 l 5,42,-1
 632 8 l 5,39,-1
EndSplineSet
Refer: 107 173 N 1 0 0 1 0 0 0
Validated: 524293
EndChar

StartChar: uni00B2
Encoding: 178 178 112
Width: 1424
VWidth: 2048
Flags: W
HStem: 0 104<580.406 843.594> 1296 104<580.406 843.594>
VStem: 80 192<500.17 899.83> 632 160<-332 8> 1152 192<500.17 899.83>
CounterMasks: 1 38
LayerCount: 2
Fore
SplineSet
632 8 m 5,30,-1
 792 8 l 5,31,-1
 792 -332 l 5,32,-1
 632 -332 l 5,33,-1
 632 8 l 5,30,-1
EndSplineSet
Refer: 109 175 N 1 0 0 1 0 0 0
Validated: 524293
EndChar

StartChar: uni00B3
Encoding: 179 179 113
Width: 976
VWidth: 2048
Flags: W
HStem: 0 104<417.439 632.101> 492 100<268 748> 892 20G<458.667 574.667>
VStem: 80 180<333.171 490.846>
LayerCount: 2
Fore
SplineSet
504 1192 m 5,44,-1
 168 1024 l 5,45,-1
 160 1032 l 5,46,-1
 504 1376 l 5,47,-1
 848 1032 l 5,48,-1
 840 1024 l 5,49,-1
 504 1192 l 5,44,-1
EndSplineSet
Refer: 68 101 N 1 0 0 1 0 0 0
Validated: 524289
EndChar

StartChar: acute
Encoding: 180 180 114
Width: 976
VWidth: 2048
Flags: W
HStem: 0 104<417.439 632.101> 492 100<268 748> 892 20G<458.667 574.667>
VStem: 80 180<333.171 490.846> 444 160<-304 36>
LayerCount: 2
Fore
SplineSet
444 36 m 5,50,-1
 604 36 l 5,51,-1
 604 -304 l 5,52,-1
 444 -304 l 5,53,-1
 444 36 l 5,50,-1
EndSplineSet
Refer: 164 230 N 1 0 0 1 0 0 0
Validated: 524293
EndChar

StartChar: mu
Encoding: 181 181 115
Width: 976
VWidth: 2048
Flags: W
HStem: 0 104<417.439 632.101> 492 100<268 748> 892 20G<458.667 574.667> 1048 144<518.962 727.171> 1136 144<219.798 428.007>
VStem: 80 180<333.171 490.846> 444 160<-300 40>
LayerCount: 2
Fore
SplineSet
444 40 m 5,70,-1
 604 40 l 5,71,-1
 604 -300 l 5,72,-1
 444 -300 l 5,73,-1
 444 40 l 5,70,-1
EndSplineSet
Refer: 163 229 N 1 0 0 1 0 0 0
Validated: 524293
EndChar

StartChar: paragraph
Encoding: 182 182 116
Width: 976
VWidth: 2048
Flags: W
HStem: 0 104<417.439 632.101> 492 100<268 748> 892 20G<458.667 574.667>
VStem: 80 180<333.171 490.846> 444 160<-300 40>
LayerCount: 2
Fore
SplineSet
444 40 m 5,50,-1
 604 40 l 5,51,-1
 604 -300 l 5,52,-1
 444 -300 l 5,53,-1
 444 40 l 5,50,-1
EndSplineSet
Refer: 113 179 N 1 0 0 1 0 0 0
Validated: 524293
EndChar

StartChar: periodcentered
Encoding: 183 183 117
Width: 688
VWidth: 2048
Flags: W
HStem: 0 52<80 102.615 585.385 608> 892 20G<237.932 440> 1048 144<423.696 615.944> 1136 144<147.466 339.714>
VStem: 248 192<104 662>
LayerCount: 2
Fore
SplineSet
440 912 m 5,26,-1
 440 104 l 5,27,-1
 608 52 l 5,28,-1
 608 0 l 5,29,-1
 80 0 l 5,30,-1
 80 52 l 5,31,-1
 248 104 l 5,32,-1
 248 662 l 5,33,-1
 116 596 l 5,34,-1
 100 618 l 5,35,-1
 248 912 l 5,36,-1
 440 912 l 5,26,-1
EndSplineSet
Refer: 93 126 N 0.92334 0 0 1 -35.6445 0 0
Validated: 524289
EndChar

StartChar: uni00B9
Encoding: 185 185 119
Width: 1976
VWidth: 2048
Flags: W
HStem: 0 52<80 102.615 1873.38 1896> 808 104<603.338 800.391 1248.28 1442.3> 860 50<140 192>
VStem: 248 192<104 698.066 796 804> 892 192<104 676> 1536 192<104 712.348>
CounterMasks: 1 1c
LayerCount: 2
Fore
SplineSet
1358 1304 m 5,47,-1
 1078 1024 l 5,48,-1
 1040 1022 1040 1022 1042 1060 c 5,51,-1
 1214 1404 l 5,52,-1
 1254 1472 1254 1472 1342 1436 c 5,55,-1
 1414 1384 1414 1384 1358 1304 c 5,47,-1
EndSplineSet
Refer: 76 109 N 1 0 0 1 0 0 0
Validated: 524321
EndChar

StartChar: ordmasculine
Encoding: 186 186 120
Width: 1072
VWidth: 2048
Flags: W
HStem: 0 104<433.371 638.629> 808 104<433.371 638.629>
VStem: 80 192<300.213 611.787> 800 192<300.213 611.787>
LayerCount: 2
Fore
SplineSet
536 1208 m 5,24,-1
 872 1376 l 5,25,-1
 880 1368 l 5,26,-1
 536 1024 l 5,27,-1
 192 1368 l 5,28,-1
 200 1376 l 5,29,-1
 536 1208 l 5,24,-1
EndSplineSet
Refer: 78 111 N 1 0 0 1 0 0 0
Validated: 524289
EndChar

StartChar: onequarter
Encoding: 188 188 122
Width: 1072
VWidth: 2048
Flags: W
HStem: 0 104<433.371 638.629> 808 104<433.371 638.629>
VStem: 80 192<300.213 611.787> 800 192<300.213 611.787>
LayerCount: 2
Fore
SplineSet
536 1192 m 5,24,-1
 200 1024 l 5,25,-1
 192 1032 l 5,26,-1
 536 1376 l 5,27,-1
 880 1032 l 5,28,-1
 872 1024 l 5,29,-1
 536 1192 l 5,24,-1
EndSplineSet
Refer: 78 111 N 1 0 0 1 0 0 0
Validated: 524289
EndChar

StartChar: onehalf
Encoding: 189 189 123
Width: 1072
VWidth: 2048
Flags: W
HStem: 0 104<433.371 638.629> 808 104<433.371 638.629>
VStem: 80 192<300.213 611.787> 456 160<-300 40> 800 192<300.213 611.787>
CounterMasks: 1 38
LayerCount: 2
Fore
SplineSet
456 40 m 5,30,-1
 616 40 l 5,31,-1
 616 -300 l 5,32,-1
 456 -300 l 5,33,-1
 456 40 l 5,30,-1
EndSplineSet
Refer: 120 186 N 1 0 0 1 0 0 0
Validated: 524293
EndChar

StartChar: threequarters
Encoding: 190 190 124
Width: 1072
VWidth: 2048
Flags: W
HStem: 0 104<433.371 638.629> 808 104<433.371 638.629> 1048 144<538.493 746.702> 1136 144<239.329 447.538>
VStem: 80 192<300.213 611.787> 456 160<-300 40> 800 192<300.213 611.787>
CounterMasks: 1 0e
LayerCount: 2
Fore
SplineSet
456 40 m 5,50,-1
 616 40 l 5,51,-1
 616 -300 l 5,52,-1
 456 -300 l 5,53,-1
 456 40 l 5,50,-1
EndSplineSet
Refer: 121 187 N 1 0 0 1 0 0 0
Validated: 524293
EndChar

StartChar: questiondown
Encoding: 191 191 125
Width: 1072
VWidth: 2048
Flags: W
HStem: 0 104<433.371 638.629> 808 104<433.371 638.629>
VStem: 80 192<300.213 611.787> 456 160<-300 40> 800 192<300.213 611.787>
CounterMasks: 1 38
LayerCount: 2
Fore
SplineSet
456 40 m 5,30,-1
 616 40 l 5,31,-1
 616 -300 l 5,32,-1
 456 -300 l 5,33,-1
 456 40 l 5,30,-1
EndSplineSet
Refer: 122 188 N 1 0 0 1 0 0 0
Validated: 524293
EndChar

StartChar: Aacute
Encoding: 193 193 127
Width: 1556
VWidth: 2048
Flags: W
HStem: 0 52<80 102.615 1453.38 1476> 404 128<536 932> 1380 20G<744.222 760.58>
LayerCount: 2
Fore
SplineSet
1058 1784 m 5,16,-1
 778 1504 l 5,17,-1
 740 1502 740 1502 742 1540 c 5,20,-1
 914 1884 l 5,21,-1
 954 1952 954 1952 1042 1916 c 5,24,-1
 1114 1864 1114 1864 1058 1784 c 5,16,-1
EndSplineSet
Refer: 32 65 N 1 0 0 1 0 0 0
Validated: 33
EndChar

StartChar: Acircumflex
Encoding: 194 194 128
Width: 1556
VWidth: 2048
Flags: W
HStem: 0 52<80 102.615 1453.38 1476> 404 128<536 932> 1380 20G<744.222 760.58>
LayerCount: 2
Fore
SplineSet
752 1708 m 5,16,-1
 416 1540 l 5,17,-1
 408 1548 l 5,18,-1
 752 1892 l 5,19,-1
 1096 1548 l 5,20,-1
 1088 1540 l 5,21,-1
 752 1708 l 5,16,-1
EndSplineSet
Refer: 32 65 N 1 0 0 1 0 0 0
Validated: 1
EndChar

StartChar: Atilde
Encoding: 195 195 129
Width: 1560
VWidth: 2048
Flags: W
HStem: 0 52<80 102.615 1453.38 1476> 404 128<536 932> 1380 20G<744.222 760.58>
LayerCount: 2
Fore
SplineSet
796 1560 m 5,16,-1
 492 1752 492 1752 340 1544 c 5,19,-1
 356 1704 356 1704 484 1772 c 4,22,-1
 612 1840 612 1840 828 1724 c 4,25,-1
 1044 1608 1044 1608 1164 1800 c 5,28,-1
 1132 1456 1132 1456 796 1560 c 5,16,-1
EndSplineSet
Refer: 32 65 N 1 0 0 1 0 0 0
Validated: 33
EndChar

StartChar: Adieresis
Encoding: 196 196 130
Width: 1556
VWidth: 2048
Flags: W
HStem: 0 52<80 102.615 1453.38 1476> 404 128<536 932> 1380 20G<744.222 760.58>
LayerCount: 2
Fore
SplineSet
752 1724 m 5,16,-1
 1088 1892 l 5,17,-1
 1096 1884 l 5,18,-1
 752 1540 l 5,19,-1
 408 1884 l 5,20,-1
 416 1892 l 5,21,-1
 752 1724 l 5,16,-1
EndSplineSet
Refer: 32 65 N 1 0 0 1 0 0 0
Validated: 1
EndChar

StartChar: Aring
Encoding: 197 197 131
Width: 1200
VWidth: 2048
Flags: W
HStem: 0 52<80 102.615> 0 104<440 968> 648 104<440 860> 1296 104<440 968> 1348 52<80 102.615>
VStem: 248 192<104 648 752 1296>
LayerCount: 2
Fore
SplineSet
704 1560 m 5,24,-1
 400 1752 400 1752 248 1544 c 5,27,-1
 264 1704 264 1704 392 1772 c 4,30,-1
 520 1840 520 1840 736 1724 c 4,33,-1
 952 1608 952 1608 1072 1800 c 5,36,-1
 1040 1456 1040 1456 704 1560 c 5,24,-1
EndSplineSet
Refer: 36 69 N 1 0 0 1 0 0 0
Validated: 33
EndChar

StartChar: AE
Encoding: 198 198 132
Width: 1200
VWidth: 2048
Flags: W
HStem: 0 52<80 102.615> 0 104<440 968> 648 104<440 860> 1296 104<440 968> 1348 52<80 102.615>
VStem: 248 192<104 648 752 1296>
LayerCount: 2
Fore
SplineSet
664 1724 m 5,24,-1
 1000 1892 l 5,25,-1
 1008 1884 l 5,26,-1
 664 1540 l 5,27,-1
 320 1884 l 5,28,-1
 328 1892 l 5,29,-1
 664 1724 l 5,24,-1
EndSplineSet
Refer: 36 69 N 1 0 0 1 0 0 0
Validated: 1
EndChar

StartChar: Ccedilla
Encoding: 199 199 133
Width: 1200
VWidth: 2048
Flags: W
HStem: 0 52<80 102.615> 0 104<440 968> 648 104<440 860> 1296 104<440 968> 1348 52<80 102.615>
VStem: 248 192<104 648 752 1296> 620 160<-332 8>
LayerCount: 2
Fore
SplineSet
620 8 m 5,24,-1
 780 8 l 5,25,-1
 780 -332 l 5,26,-1
 620 -332 l 5,27,-1
 620 8 l 5,24,-1
EndSplineSet
Refer: 36 69 N 1 0 0 1 0 0 0
Validated: 5
EndChar

StartChar: Eacute
Encoding: 201 201 135
Width: 1200
VWidth: 2048
Flags: W
HStem: 0 52<80 102.615> 0 104<440 968> 648 104<440 860> 1296 104<440 968> 1348 52<80 102.615>
VStem: 248 192<104 648 752 1296>
LayerCount: 2
Fore
SplineSet
938 1784 m 5,24,-1
 658 1504 l 5,25,-1
 620 1502 620 1502 622 1540 c 5,28,-1
 794 1884 l 5,29,-1
 834 1952 834 1952 922 1916 c 5,32,-1
 994 1864 994 1864 938 1784 c 5,24,-1
EndSplineSet
Refer: 36 69 N 1 0 0 1 0 0 0
Validated: 33
EndChar

StartChar: Ecircumflex
Encoding: 202 202 136
Width: 1200
VWidth: 2048
Flags: W
HStem: 0 52<80 102.615> 0 104<440 968> 648 104<440 860> 1296 104<440 968> 1348 52<80 102.615>
VStem: 248 192<104 648 752 1296> 620 160<-332 8>
LayerCount: 2
Fore
SplineSet
620 8 m 5,35,-1
 780 8 l 5,36,-1
 780 -332 l 5,37,-1
 620 -332 l 5,38,-1
 620 8 l 5,35,-1
EndSplineSet
Refer: 134 200 N 1 0 0 1 0 0 0
Validated: 524293
EndChar

StartChar: Edieresis
Encoding: 203 203 137
Width: 1200
VWidth: 2048
Flags: W
HStem: 0 52<80 102.615> 0 104<440 968> 648 104<440 860> 1296 104<440 968> 1348 52<80 102.615>
VStem: 248 192<104 648 752 1296> 620 160<-332 8>
LayerCount: 2
Fore
SplineSet
620 8 m 5,35,-1
 780 8 l 5,36,-1
 780 -332 l 5,37,-1
 620 -332 l 5,38,-1
 620 8 l 5,35,-1
EndSplineSet
Refer: 135 201 N 1 0 0 1 0 0 0
Validated: 5
EndChar

StartChar: Iacute
Encoding: 205 205 139
Width: 688
VWidth: 2048
Flags: W
HStem: 0 52<80 102.615 585.385 608> 1348 52<80 102.615 585.385 608>
VStem: 248 192<104 1296>
LayerCount: 2
Fore
SplineSet
630 1784 m 5,12,-1
 350 1504 l 5,13,-1
 312 1502 312 1502 314 1540 c 5,16,-1
 486 1884 l 5,17,-1
 526 1952 526 1952 614 1916 c 5,20,-1
 686 1864 686 1864 630 1784 c 5,12,-1
EndSplineSet
Refer: 40 73 N 1 0 0 1 0 0 0
Validated: 33
EndChar

StartChar: Icircumflex
Encoding: 206 206 140
Width: 688
VWidth: 2048
Flags: W
HStem: 0 52<80 102.615 585.385 608> 1348 52<80 102.615 585.385 608>
VStem: 248 192<104 1296>
LayerCount: 2
Fore
SplineSet
344 1708 m 5,12,-1
 8 1540 l 5,13,-1
 0 1548 l 5,14,-1
 344 1892 l 5,15,-1
 688 1548 l 5,16,-1
 680 1540 l 5,17,-1
 344 1708 l 5,12,-1
EndSplineSet
Refer: 40 73 N 1 0 0 1 0 0 0
Validated: 1
EndChar

StartChar: Idieresis
Encoding: 207 207 141
Width: 688
VWidth: 2048
Flags: W
HStem: 0 52<80 102.615 585.385 608> 1348 52<80 102.615 585.385 608>
VStem: 248 192<104 1296>
LayerCount: 2
Fore
SplineSet
344 1724 m 5,12,-1
 680 1892 l 5,13,-1
 688 1884 l 5,14,-1
 344 1540 l 5,15,-1
 0 1884 l 5,16,-1
 8 1892 l 5,17,-1
 344 1724 l 5,12,-1
EndSplineSet
Refer: 40 73 N 1 0 0 1 0 0 0
Validated: 1
EndChar

StartChar: Eth
Encoding: 208 208 142
Width: 1872
VWidth: 2048
Flags: W
HStem: 0 52<80 102.615 585.385 608 1264 1286.62 1769.38 1792> 1348 52<80 102.615 1769.38 1792> 1584 128<256.777 1620.74>
VStem: 248 192<104 1296> 1432 192<104 1296>
LayerCount: 2
Fore
SplineSet
256.77734375 1584 m 5,25,-1
 256.77734375 1712 l 5,26,-1
 1620.74023438 1712 l 5,27,-1
 1620.74023438 1584 l 5,28,-1
 256.77734375 1584 l 5,25,-1
EndSplineSet
Refer: 44 77 N 1 0 0 1 0 0 0
Validated: 524289
EndChar

StartChar: Ntilde
Encoding: 209 209 143
Width: 1592
VWidth: 2048
Flags: W
HStem: 0 52<80 102.615 585.385 608 1489.38 1512> 1348 52<80 102.615 984 1006.62 1489.38 1512> 1584 128<248.977 1344.97>
VStem: 248 192<104 1264> 1152 192<136 1296>
LayerCount: 2
Fore
SplineSet
248.9765625 1584 m 5,22,-1
 248.9765625 1712 l 5,23,-1
 1344.97265625 1712 l 5,24,-1
 1344.97265625 1584 l 5,25,-1
 248.9765625 1584 l 5,22,-1
EndSplineSet
Refer: 45 78 N 1 0 0 1 0 0 0
Validated: 524289
EndChar

StartChar: Oacute
Encoding: 211 211 145
Width: 1424
VWidth: 2048
Flags: W
HStem: 0 104<580.406 843.594> 1296 104<580.406 843.594>
VStem: 80 192<500.17 899.83> 1152 192<500.17 899.83>
LayerCount: 2
Fore
SplineSet
1006 1784 m 5,24,-1
 726 1504 l 5,25,-1
 688 1502 688 1502 690 1540 c 5,28,-1
 862 1884 l 5,29,-1
 902 1952 902 1952 990 1916 c 5,32,-1
 1062 1864 1062 1864 1006 1784 c 5,24,-1
EndSplineSet
Refer: 46 79 N 1 0 0 1 0 0 0
Validated: 524321
EndChar

StartChar: Ocircumflex
Encoding: 212 212 146
Width: 1424
VWidth: 2048
Flags: W
HStem: 0 104<580.406 843.594> 1296 104<580.406 843.594>
VStem: 80 192<500.17 899.83> 632 160<-332 8> 1152 192<500.17 899.83>
CounterMasks: 1 38
LayerCount: 2
Fore
SplineSet
632 8 m 5,24,-1
 792 8 l 5,25,-1
 792 -332 l 5,26,-1
 632 -332 l 5,27,-1
 632 8 l 5,24,-1
EndSplineSet
Refer: 46 79 N 1 0 0 1 0 0 0
Validated: 524293
EndChar

StartChar: Otilde
Encoding: 213 213 147
Width: 1424
VWidth: 2048
Flags: W
HStem: 0 104<580.406 843.594> 1296 104<580.406 843.594>
VStem: 80 192<500.17 899.83> 632 160<-332 8> 1152 192<500.17 899.83>
CounterMasks: 1 38
LayerCount: 2
Fore
SplineSet
632 8 m 5,35,-1
 792 8 l 5,36,-1
 792 -332 l 5,37,-1
 632 -332 l 5,38,-1
 632 8 l 5,35,-1
EndSplineSet
Refer: 144 210 N 1 0 0 1 0 0 0
Validated: 524293
EndChar

StartChar: Odieresis
Encoding: 214 214 148
Width: 1424
VWidth: 2048
Flags: W
HStem: 0 104<580.406 843.594> 1296 104<580.406 843.594>
VStem: 80 192<500.17 899.83> 632 160<-332 8> 1152 192<500.17 899.83>
CounterMasks: 1 38
LayerCount: 2
Fore
SplineSet
632 8 m 5,35,-1
 792 8 l 5,36,-1
 792 -332 l 5,37,-1
 632 -332 l 5,38,-1
 632 8 l 5,35,-1
EndSplineSet
Refer: 145 211 N 1 0 0 1 0 0 0
Validated: 524293
EndChar

StartChar: multiply
Encoding: 215 215 149
Width: 1368
VWidth: 2048
Flags: W
LayerCount: 2
Fore
SplineSet
80 1200 m 1
 272 1200 l 1
 676 796 l 1
 1080 1200 l 1
 1272 1200 l 1
 772 700 l 1
 1272 200 l 1
 1080 200 l 1
 676 604 l 1
 272 200 l 1
 80 200 l 1
 580 700 l 1
 80 1200 l 1
EndSplineSet
Validated: 1
EndChar

StartChar: Oslash
Encoding: 216 216 150
Width: 1496
VWidth: 2048
Flags: W
HStem: 0 104<618.69 877.31> 1348 52<80 102.615 1393.38 1416>
VStem: 248 192<285.979 1296> 1056 192<285.979 1296>
LayerCount: 2
Fore
SplineSet
780 1560 m 5,24,-1
 476 1752 476 1752 324 1544 c 5,27,-1
 340 1704 340 1704 468 1772 c 4,30,-1
 596 1840 596 1840 812 1724 c 4,33,-1
 1028 1608 1028 1608 1148 1800 c 5,36,-1
 1116 1456 1116 1456 780 1560 c 5,24,-1
EndSplineSet
Refer: 52 85 N 1 0 0 1 0 0 0
Validated: 524321
EndChar

StartChar: Uacute
Encoding: 218 218 152
Width: 1496
VWidth: 2048
Flags: W
HStem: 0 104<618.69 877.31> 1348 52<80 102.615 1393.38 1416>
VStem: 248 192<285.979 1296> 1056 192<285.979 1296>
LayerCount: 2
Fore
SplineSet
1026 1784 m 5,24,-1
 746 1504 l 5,25,-1
 708 1502 708 1502 710 1540 c 5,28,-1
 882 1884 l 5,29,-1
 922 1952 922 1952 1010 1916 c 5,32,-1
 1082 1864 1082 1864 1026 1784 c 5,24,-1
EndSplineSet
Refer: 52 85 N 1 0 0 1 0 0 0
Validated: 524321
EndChar

StartChar: Ucircumflex
Encoding: 219 219 153
Width: 1496
VWidth: 2048
Flags: W
HStem: 0 104<618.69 877.31> 1348 52<80 102.615 1393.38 1416>
VStem: 248 192<285.979 1296> 1056 192<285.979 1296>
LayerCount: 2
Fore
SplineSet
748 1708 m 5,24,-1
 412 1540 l 5,25,-1
 404 1548 l 5,26,-1
 748 1892 l 5,27,-1
 1092 1548 l 5,28,-1
 1084 1540 l 5,29,-1
 748 1708 l 5,24,-1
EndSplineSet
Refer: 52 85 N 1 0 0 1 0 0 0
Validated: 524289
EndChar

StartChar: Udieresis
Encoding: 220 220 154
Width: 1496
VWidth: 2048
Flags: W
HStem: 0 104<618.69 877.31> 1348 52<80 102.615 1393.38 1416>
VStem: 248 192<285.979 1296> 1056 192<285.979 1296>
LayerCount: 2
Fore
SplineSet
748 1724 m 5,24,-1
 1084 1892 l 5,25,-1
 1092 1884 l 5,26,-1
 748 1540 l 5,27,-1
 404 1884 l 5,28,-1
 412 1892 l 5,29,-1
 748 1724 l 5,24,-1
EndSplineSet
Refer: 52 85 N 1 0 0 1 0 0 0
Validated: 524289
EndChar

StartChar: Thorn
Encoding: 222 222 156
Width: 1592
VWidth: 2048
Flags: W
HStem: 0 52<80 102.615 585.385 608 1489.38 1512> 1348 52<80 102.615 984 1006.62 1489.38 1512>
VStem: 248 192<104 1264> 1152 192<136 1296>
LayerCount: 2
Fore
SplineSet
1066 1784 m 5,22,-1
 786 1504 l 5,23,-1
 748 1502 748 1502 750 1540 c 5,26,-1
 922 1884 l 5,27,-1
 962 1952 962 1952 1050 1916 c 5,30,-1
 1122 1864 1122 1864 1066 1784 c 5,22,-1
EndSplineSet
Refer: 45 78 N 1 0 0 1 0 0 0
Validated: 33
EndChar

StartChar: germandbls
Encoding: 223 223 157
Width: 1052
VWidth: 2048
Flags: W
HStem: 0 21G<484 681.333> 1380 20G<373.333 549.333 803.714 816.75>
VStem: 88 56<311.078 352> 454 160<-332 8> 776 192<252.875 450.312> 800 64<1032 1097.16>
LayerCount: 2
Fore
SplineSet
454 8 m 5,56,-1
 614 8 l 5,57,-1
 614 -332 l 5,58,-1
 454 -332 l 5,59,-1
 454 8 l 5,56,-1
EndSplineSet
Refer: 50 83 N 1 0 0 1 0 0 0
Validated: 524293
EndChar

StartChar: aacute
Encoding: 225 225 159
Width: 920
VWidth: 2048
Flags: W
HStem: 0 104<312.787 516.276> 468 104<303.708 490.368> 808 104<327.222 502.223>
VStem: 80 140<197.482 376.461> 590 192<161.066 387.729 480 708.103>
LayerCount: 2
Fore
SplineSet
702 1304 m 5,74,-1
 422 1024 l 5,75,-1
 384 1022 384 1022 386 1060 c 5,78,-1
 558 1404 l 5,79,-1
 598 1472 598 1472 686 1436 c 5,82,-1
 758 1384 758 1384 702 1304 c 5,74,-1
EndSplineSet
Refer: 64 97 N 1 0 0 1 0 0 0
Validated: 524321
EndChar

StartChar: acircumflex
Encoding: 226 226 160
Width: 920
VWidth: 2048
Flags: W
HStem: 0 104<312.787 516.276> 468 104<303.708 490.368> 808 104<327.222 502.223>
VStem: 80 140<197.482 376.461> 590 192<161.066 387.729 480 708.103>
LayerCount: 2
Fore
SplineSet
424 1192 m 5,74,-1
 88 1024 l 5,75,-1
 80 1032 l 5,76,-1
 424 1376 l 5,77,-1
 768 1032 l 5,78,-1
 760 1024 l 5,79,-1
 424 1192 l 5,74,-1
EndSplineSet
Refer: 64 97 N 1 0 0 1 0 0 0
Validated: 524289
EndChar

StartChar: adieresis
Encoding: 228 228 162
Width: 920
VWidth: 2048
Flags: W
HStem: 0 104<312.787 516.276> 468 104<303.708 490.368> 808 104<327.222 502.223>
VStem: 80 140<197.482 376.461> 590 192<161.066 387.729 480 708.103>
LayerCount: 2
Fore
SplineSet
424 1208 m 5,74,-1
 760 1376 l 5,75,-1
 768 1368 l 5,76,-1
 424 1024 l 5,77,-1
 80 1368 l 5,78,-1
 88 1376 l 5,79,-1
 424 1208 l 5,74,-1
EndSplineSet
Refer: 64 97 N 1 0 0 1 0 0 0
Validated: 524289
EndChar

StartChar: ae
Encoding: 230 230 164
Width: 976
VWidth: 2048
Flags: W
HStem: 0 104<417.439 632.101> 492 100<268 748> 892 20G<458.667 574.667>
VStem: 80 180<333.171 490.846>
LayerCount: 2
Fore
SplineSet
504 1208 m 5,44,-1
 840 1376 l 5,45,-1
 848 1368 l 5,46,-1
 504 1024 l 5,47,-1
 160 1368 l 5,48,-1
 168 1376 l 5,49,-1
 504 1208 l 5,44,-1
EndSplineSet
Refer: 68 101 N 1 0 0 1 0 0 0
Validated: 524289
EndChar

StartChar: ccedilla
Encoding: 231 231 165
Width: 976
VWidth: 2048
Flags: W
HStem: 0 104<417.439 632.101> 492 100<268 748> 892 20G<458.667 574.667>
VStem: 80 180<333.171 490.846> 444 160<-300 40>
LayerCount: 2
Fore
SplineSet
444 40 m 5,44,-1
 604 40 l 5,45,-1
 604 -300 l 5,46,-1
 444 -300 l 5,47,-1
 444 40 l 5,44,-1
EndSplineSet
Refer: 68 101 N 1 0 0 1 0 0 0
Validated: 524293
EndChar

StartChar: eacute
Encoding: 233 233 167
Width: 976
VWidth: 2048
Flags: W
HStem: 0 104<417.439 632.101> 492 100<268 748> 892 20G<458.667 574.667>
VStem: 80 180<333.171 490.846>
LayerCount: 2
Fore
SplineSet
814 1304 m 5,44,-1
 534 1024 l 5,45,-1
 496 1022 496 1022 498 1060 c 5,48,-1
 670 1404 l 5,49,-1
 710 1472 710 1472 798 1436 c 5,52,-1
 870 1384 870 1384 814 1304 c 5,44,-1
EndSplineSet
Refer: 68 101 N 1 0 0 1 0 0 0
Validated: 524321
EndChar

StartChar: ecircumflex
Encoding: 234 234 168
Width: 976
VWidth: 2048
Flags: W
HStem: 0 104<417.439 632.101> 492 100<268 748> 892 20G<458.667 574.667>
VStem: 80 180<333.171 490.846> 444 160<-300 40>
LayerCount: 2
Fore
SplineSet
444 40 m 5,55,-1
 604 40 l 5,56,-1
 604 -300 l 5,57,-1
 444 -300 l 5,58,-1
 444 40 l 5,55,-1
EndSplineSet
Refer: 166 232 N 1 0 0 1 0 0 0
Validated: 524293
EndChar

StartChar: edieresis
Encoding: 235 235 169
Width: 976
VWidth: 2048
Flags: W
HStem: 0 104<417.439 632.101> 492 100<268 748> 892 20G<458.667 574.667>
VStem: 80 180<333.171 490.846> 444 160<-300 40>
LayerCount: 2
Fore
SplineSet
444 40 m 5,55,-1
 604 40 l 5,56,-1
 604 -300 l 5,57,-1
 444 -300 l 5,58,-1
 444 40 l 5,55,-1
EndSplineSet
Refer: 167 233 N 1 0 0 1 0 0 0
Validated: 524293
EndChar

StartChar: igrave
Encoding: 236 236 170
Width: 688
VWidth: 2048
Flags: W
HStem: 0 52<80 102.615 585.385 608> 892 20G<237.932 440>
VStem: 248 192<104 662>
LayerCount: 2
Fore
SplineSet
440 912 m 5,11,-1
 440 104 l 5,12,-1
 608 52 l 5,13,-1
 608 0 l 5,14,-1
 80 0 l 5,15,-1
 80 52 l 5,16,-1
 248 104 l 5,17,-1
 248 662 l 5,18,-1
 116 596 l 5,19,-1
 100 618 l 5,20,-1
 248 912 l 5,21,-1
 440 912 l 5,11,-1
EndSplineSet
Refer: 63 96 N 1 0 0 1 -85.9375 0 0
Validated: 524289
EndChar

StartChar: iacute
Encoding: 237 237 171
Width: 688
VWidth: 2048
Flags: W
HStem: 0 52<80 102.615 585.385 608> 892 20G<237.932 440>
VStem: 248 192<104 662>
LayerCount: 2
Fore
SplineSet
626 1304 m 5,0,-1
 346 1024 l 5,1,-1
 308 1022 308 1022 310 1060 c 5,4,-1
 482 1404 l 5,5,-1
 522 1472 522 1472 610 1436 c 5,8,-1
 682 1384 682 1384 626 1304 c 5,0,-1
440 912 m 5,11,-1
 440 104 l 5,12,-1
 608 52 l 5,13,-1
 608 0 l 5,14,-1
 80 0 l 5,15,-1
 80 52 l 5,16,-1
 248 104 l 5,17,-1
 248 662 l 5,18,-1
 116 596 l 5,19,-1
 100 618 l 5,20,-1
 248 912 l 5,21,-1
 440 912 l 5,11,-1
EndSplineSet
Validated: 33
EndChar

StartChar: icircumflex
Encoding: 238 238 172
Width: 688
VWidth: 2048
Flags: W
HStem: 0 52<80 102.615 585.385 608> 892 20G<237.932 440>
VStem: 248 192<104 662>
LayerCount: 2
Fore
SplineSet
344 1192 m 5,0,-1
 8 1024 l 5,1,-1
 0 1032 l 5,2,-1
 344 1376 l 5,3,-1
 688 1032 l 5,4,-1
 680 1024 l 5,5,-1
 344 1192 l 5,0,-1
440 912 m 5,6,-1
 440 104 l 5,7,-1
 608 52 l 5,8,-1
 608 0 l 5,9,-1
 80 0 l 5,10,-1
 80 52 l 5,11,-1
 248 104 l 5,12,-1
 248 662 l 5,13,-1
 116 596 l 5,14,-1
 100 618 l 5,15,-1
 248 912 l 5,16,-1
 440 912 l 5,6,-1
EndSplineSet
Validated: 1
EndChar

StartChar: idieresis
Encoding: 239 239 173
Width: 688
VWidth: 2048
Flags: W
HStem: 0 52<80 102.615 585.385 608> 892 20G<237.932 440>
VStem: 248 192<104 662>
LayerCount: 2
Fore
SplineSet
344 1208 m 5,0,-1
 680 1376 l 5,1,-1
 688 1368 l 5,2,-1
 344 1024 l 5,3,-1
 0 1368 l 5,4,-1
 8 1376 l 5,5,-1
 344 1208 l 5,0,-1
440 912 m 5,6,-1
 440 104 l 5,7,-1
 608 52 l 5,8,-1
 608 0 l 5,9,-1
 80 0 l 5,10,-1
 80 52 l 5,11,-1
 248 104 l 5,12,-1
 248 662 l 5,13,-1
 116 596 l 5,14,-1
 100 618 l 5,15,-1
 248 912 l 5,16,-1
 440 912 l 5,6,-1
EndSplineSet
Validated: 1
EndChar

StartChar: eth
Encoding: 240 240 174
Width: 1976
VWidth: 2048
Flags: W
HStem: 0 52<80 102.615 1873.38 1896> 808 104<603.338 800.391 1248.28 1442.3> 860 50<140 192> 1096 128<248.848 1630.82>
VStem: 248 192<104 698.066 796 804> 892 192<104 676> 1536 192<104 712.348>
CounterMasks: 1 0e
LayerCount: 2
Fore
SplineSet
248.84765625 1096 m 5,47,-1
 248.84765625 1224 l 5,48,-1
 1630.82226562 1224 l 5,49,-1
 1630.82226562 1096 l 5,50,-1
 248.84765625 1096 l 5,47,-1
EndSplineSet
Refer: 76 109 N 1 0 0 1 0 0 0
Validated: 524289
EndChar

StartChar: ntilde
Encoding: 241 241 175
Width: 1332
VWidth: 2048
Flags: W
HStem: 0 52<80 102.615 1229.38 1252> 808 104<593.985 798.742> 860 50<140 192> 1092 128<248.084 1084.01>
VStem: 248 192<104 678.754 772 804> 892 192<104 713.93>
LayerCount: 2
Fore
SplineSet
248.083984375 1092 m 5,35,-1
 248.083984375 1220 l 5,36,-1
 1084.01464844 1220 l 5,37,-1
 1084.01464844 1092 l 5,38,-1
 248.083984375 1092 l 5,35,-1
EndSplineSet
Refer: 77 110 N 1 0 0 1 0 0 0
Validated: 524289
EndChar

StartChar: oacute
Encoding: 243 243 177
Width: 1072
VWidth: 2048
Flags: W
HStem: 0 104<433.371 638.629> 808 104<433.371 638.629>
VStem: 80 192<300.213 611.787> 800 192<300.213 611.787>
LayerCount: 2
Fore
SplineSet
834 1304 m 5,24,-1
 554 1024 l 5,25,-1
 516 1022 516 1022 518 1060 c 5,28,-1
 690 1404 l 5,29,-1
 730 1472 730 1472 818 1436 c 5,32,-1
 890 1384 890 1384 834 1304 c 5,24,-1
EndSplineSet
Refer: 78 111 N 1 0 0 1 0 0 0
Validated: 524321
EndChar

StartChar: ocircumflex
Encoding: 244 244 178
Width: 1072
VWidth: 2048
Flags: W
HStem: 0 104<433.371 638.629> 808 104<433.371 638.629>
VStem: 80 192<300.213 611.787> 456 160<-300 40> 800 192<300.213 611.787>
CounterMasks: 1 38
LayerCount: 2
Fore
SplineSet
456 40 m 5,24,-1
 616 40 l 5,25,-1
 616 -300 l 5,26,-1
 456 -300 l 5,27,-1
 456 40 l 5,24,-1
EndSplineSet
Refer: 78 111 N 1 0 0 1 0 0 0
Validated: 524293
EndChar

StartChar: otilde
Encoding: 245 245 179
Width: 1072
VWidth: 2048
Flags: W
HStem: 0 104<433.371 638.629> 808 104<433.371 638.629>
VStem: 80 192<300.213 611.787> 456 160<-300 40> 800 192<300.213 611.787>
CounterMasks: 1 38
LayerCount: 2
Fore
SplineSet
456 40 m 5,35,-1
 616 40 l 5,36,-1
 616 -300 l 5,37,-1
 456 -300 l 5,38,-1
 456 40 l 5,35,-1
EndSplineSet
Refer: 176 242 N 1 0 0 1 0 0 0
Validated: 524293
EndChar

StartChar: odieresis
Encoding: 246 246 180
Width: 1072
VWidth: 2048
Flags: W
HStem: 0 104<433.371 638.629> 808 104<433.371 638.629>
VStem: 80 192<300.213 611.787> 456 160<-300 40> 800 192<300.213 611.787>
CounterMasks: 1 38
LayerCount: 2
Fore
SplineSet
456 40 m 5,35,-1
 616 40 l 5,36,-1
 616 -300 l 5,37,-1
 456 -300 l 5,38,-1
 456 40 l 5,35,-1
EndSplineSet
Refer: 177 243 N 1 0 0 1 0 0 0
Validated: 524293
EndChar

StartChar: uacute
Encoding: 250 250 184
Width: 1212
VWidth: 2048
Flags: W
HStem: 0 52<1080 1132> 0 104<473.695 668.662> 860 52<80 136 1076 1132>
VStem: 188 192<199.652 808> 832 192<108 116 213.934 808>
LayerCount: 2
Fore
SplineSet
926 1304 m 5,31,-1
 646 1024 l 5,32,-1
 608 1022 608 1022 610 1060 c 5,35,-1
 782 1404 l 5,36,-1
 822 1472 822 1472 910 1436 c 5,39,-1
 982 1384 982 1384 926 1304 c 5,31,-1
EndSplineSet
Refer: 84 117 N 1 0 0 1 0 0 0
Validated: 524321
EndChar

StartChar: ucircumflex
Encoding: 251 251 185
Width: 1212
VWidth: 2048
Flags: W
HStem: 0 52<1080 1132> 0 104<473.695 668.662> 860 52<80 136 1076 1132>
VStem: 188 192<199.652 808> 832 192<108 116 213.934 808>
LayerCount: 2
Fore
SplineSet
608 1192 m 5,31,-1
 272 1024 l 5,32,-1
 264 1032 l 5,33,-1
 608 1376 l 5,34,-1
 952 1032 l 5,35,-1
 944 1024 l 5,36,-1
 608 1192 l 5,31,-1
EndSplineSet
Refer: 84 117 N 1 0 0 1 0 0 0
Validated: 524289
EndChar

StartChar: udieresis
Encoding: 252 252 186
Width: 1212
VWidth: 2048
Flags: W
HStem: 0 52<1080 1132> 0 104<473.695 668.662> 860 52<80 136 1076 1132>
VStem: 188 192<199.652 808> 832 192<108 116 213.934 808>
LayerCount: 2
Fore
SplineSet
600 1208 m 5,31,-1
 936 1376 l 5,32,-1
 944 1368 l 5,33,-1
 600 1024 l 5,34,-1
 256 1368 l 5,35,-1
 264 1376 l 5,36,-1
 600 1208 l 5,31,-1
EndSplineSet
Refer: 84 117 N 1 0 0 1 0 0 0
Validated: 524289
EndChar

StartChar: thorn
Encoding: 254 254 188
Width: 1332
VWidth: 2048
Flags: W
HStem: 0 52<80 102.615 1229.38 1252> 808 104<593.985 798.742> 860 50<140 192>
VStem: 248 192<104 678.754 772 804> 892 192<104 713.93>
LayerCount: 2
Fore
SplineSet
1010 1304 m 5,35,-1
 730 1024 l 5,36,-1
 692 1022 692 1022 694 1060 c 5,39,-1
 866 1404 l 5,40,-1
 906 1472 906 1472 994 1436 c 5,43,-1
 1066 1384 1066 1384 1010 1304 c 5,35,-1
EndSplineSet
Refer: 77 110 N 1 0 0 1 0 0 0
Validated: 524321
EndChar

StartChar: ydieresis
Encoding: 255 255 189
Width: 896
VWidth: 2048
Flags: W
HStem: 0 104<280.594 549.027> 808 104<275.648 555.471>
VStem: 80 80<186.459 300> 80 136<667.441 762.63> 356 160<-300 40> 640 80<672 752.8> 646 170<169.418 271.334>
LayerCount: 2
Fore
SplineSet
356 40 m 5,64,-1
 516 40 l 5,65,-1
 516 -300 l 5,66,-1
 356 -300 l 5,67,-1
 356 40 l 5,64,-1
EndSplineSet
Refer: 82 115 N 1 0 0 1 0 0 0
Validated: 524293
EndChar
